<?xml version="1.0" standalone="no"?>
<!DOCTYPE svg PUBLIC "-//W3C//DTD SVG 20010904//EN"
 "http://www.w3.org/TR/2001/REC-SVG-20010904/DTD/svg10.dtd">
<svg version="1.0" xmlns="http://www.w3.org/2000/svg"
 width="264.000000pt" height="264.000000pt" viewBox="0 0 264.000000 264.000000"
 preserveAspectRatio="xMidYMid meet">
<metadata>
Created by potrace 1.11, written by Peter Selinger 2001-2013
</metadata>
<g transform="translate(0.000000,264.000000) scale(0.100000,-0.100000)"
fill="#000000" stroke="none">
<path d="M1119 2313 c-1 -10 -2 -29 -3 -43 -1 -27 34 -111 44 -105 13 8 10 85
-6 124 -17 43 -33 54 -35 24z"/>
<path d="M1199 2268 c-11 -43 -7 -96 12 -145 l11 -28 14 34 c17 40 18 106 3
150 -15 42 -26 39 -40 -11z"/>
<path d="M1020 2264 c16 -41 45 -77 79 -97 36 -21 39 -12 12 41 -11 22 -35 46
-60 60 l-41 23 10 -27z"/>
<path d="M1272 2169 c-22 -56 -24 -97 -7 -150 l18 -52 14 34 c18 42 18 102 -1
154 l-14 40 -10 -26z"/>
<path d="M1035 2141 c-8 -14 24 -29 47 -23 14 3 16 7 7 18 -13 16 -45 19 -54
5z"/>
<path d="M1149 2138 c-1 -5 -2 -13 -3 -18 0 -6 -8 -15 -16 -20 -12 -8 -9 -10
11 -10 18 0 30 -8 39 -27 8 -16 19 -35 26 -43 16 -20 47 -120 40 -127 -3 -3
-13 8 -23 26 -10 17 -26 31 -36 31 -26 0 -17 -34 9 -38 22 -3 76 -52 58 -52
-6 0 -14 3 -20 8 -5 4 1 -3 12 -15 18 -18 22 -34 22 -89 0 -63 -24 -175 -37
-174 -3 1 -31 29 -61 64 -49 57 -100 97 -100 79 0 -3 24 -29 53 -56 49 -48 50
-49 15 -29 -21 12 -38 19 -38 16 0 -22 46 -87 71 -100 l32 -16 -7 29 c-7 27
-7 27 8 8 20 -26 20 -27 -6 -97 -15 -41 -24 -55 -30 -46 -5 8 -6 1 -2 -17 7
-28 6 -29 -11 -15 -17 14 -18 14 -7 -7 7 -13 9 -38 6 -60 -13 -76 -7 -130 20
-188 14 -32 26 -59 26 -61 0 -3 -17 4 -37 14 -21 11 -63 27 -93 37 -94 30
-154 82 -195 168 l-23 49 31 30 c24 22 26 26 7 14 -13 -9 -30 -16 -36 -16 -17
0 -26 60 -29 202 -3 93 -8 136 -20 162 -10 20 -21 36 -26 36 -18 0 -8 -76 15
-113 27 -44 25 -97 -3 -75 -14 12 -14 11 -3 -4 24 -30 8 -39 -21 -12 -29 27
-62 29 -62 4 0 -11 9 -14 31 -13 49 4 61 -19 67 -127 3 -59 13 -115 25 -147
14 -36 16 -53 8 -57 -6 -2 -2 -5 9 -6 17 -2 16 -3 -5 -10 l-25 -8 23 -1 c13
-1 44 -19 69 -40 28 -26 69 -48 111 -62 153 -50 271 -140 323 -249 36 -73 28
-89 -24 -45 -42 36 -131 75 -172 75 -13 0 -25 5 -27 12 -2 6 -12 12 -21 14 -9
1 -15 -2 -11 -7 3 -5 10 -6 16 -3 6 4 8 2 5 -3 -4 -6 -32 -23 -63 -39 -59 -30
-166 -136 -226 -225 -36 -53 -43 -57 -51 -31 -3 9 -15 41 -26 70 l-21 53 47
-5 c52 -5 140 25 128 44 -11 17 -87 11 -132 -11 -24 -12 -46 -20 -48 -18 -2 3
-44 104 -94 226 -103 251 -110 288 -62 322 16 12 34 21 40 21 6 0 11 4 11 9 0
6 -96 10 -235 10 -221 0 -292 -8 -207 -24 20 -4 61 -18 90 -32 l52 -25 -5 -46
c-4 -26 -8 -54 -10 -62 -2 -8 -7 -40 -10 -70 -3 -30 -12 -100 -20 -155 -8 -55
-17 -122 -20 -150 -3 -27 -8 -61 -10 -75 -3 -14 -7 -47 -11 -75 -3 -27 -8 -57
-9 -65 -2 -9 -6 -42 -10 -74 -12 -96 -83 -155 -199 -165 -5 -1 -6 -4 -2 -8 4
-5 111 -8 237 -9 211 -1 267 6 180 21 -69 12 -101 32 -121 77 -18 38 -19 59
-15 188 3 80 7 156 9 170 2 14 7 57 10 95 4 39 9 84 11 100 3 17 7 53 10 80 3
28 10 79 15 115 5 36 10 70 10 75 3 43 252 -535 335 -778 26 -76 49 -136 51
-135 1 2 26 68 54 148 67 186 150 358 150 310 0 -7 5 -6 14 2 8 7 14 15 14 18
-1 20 5 31 22 40 23 12 83 23 119 21 41 -2 141 -53 172 -88 l30 -35 -30 -34
c-33 -37 -38 -57 -45 -181 -6 -108 -25 -147 -80 -168 -37 -14 -65 -22 -88 -24
-5 -1 -8 -5 -8 -9 0 -10 485 -10 495 0 3 3 -9 9 -27 13 -97 19 -136 59 -157
165 -26 127 -19 173 33 228 53 57 133 79 187 52 23 -10 23 -10 5 4 -11 9 -18
18 -15 20 11 10 109 25 146 22 75 -5 82 -15 194 -276 85 -200 106 -240 121
-238 18 3 123 225 349 738 96 220 148 281 243 289 5 1 6 4 2 9 -10 10 -386 11
-386 1 0 -5 19 -13 43 -20 80 -21 97 -58 72 -154 -15 -58 -64 -186 -110 -290
-12 -27 -53 -123 -91 -212 -37 -90 -71 -159 -75 -155 -15 17 -159 376 -159
397 0 15 15 36 44 60 25 20 57 54 71 76 15 21 39 42 54 48 16 6 19 10 9 10
-20 1 -18 16 16 139 13 45 20 82 16 82 -20 0 -43 -47 -71 -145 -17 -60 -42
-126 -55 -146 -27 -43 -101 -97 -126 -94 -9 2 -19 -3 -22 -11 -9 -25 -154 -68
-265 -79 -57 -6 -95 -14 -133 -30 -15 -6 -15 -2 2 47 10 29 28 96 40 148 24
104 43 145 66 136 8 -3 14 -1 14 5 0 6 4 8 8 5 5 -3 9 1 9 9 0 9 -5 11 -11 6
-6 -4 -19 -11 -29 -14 -15 -6 -14 -1 6 28 28 41 69 75 97 80 11 2 24 7 30 10
15 10 121 14 115 5 -10 -17 56 -78 100 -94 25 -8 45 -11 45 -6 0 18 -67 76
-101 88 -32 11 -32 11 -4 7 17 -3 37 -1 45 4 12 8 9 12 -11 20 -26 10 -81 22
-110 24 -14 1 -13 6 7 33 29 37 32 67 7 62 -13 -2 -17 -11 -15 -33 4 -37 -25
-67 -81 -85 -49 -15 -140 -99 -174 -161 -16 -27 -30 -49 -33 -49 -6 0 -12 36
-13 75 -2 71 36 222 75 302 13 26 39 64 59 85 28 29 40 36 60 31 22 -5 23 -4
6 8 -16 13 -13 17 40 52 32 21 70 41 85 44 22 4 83 53 66 53 -32 0 -153 -72
-240 -143 -36 -30 -59 -42 -62 -34 -3 7 -5 6 -5 -3 3 -35 -2 -45 -11 -25 -8
18 -9 16 -9 -8 -1 -16 -10 -41 -20 -56 -24 -33 -67 -126 -77 -166 l-8 -30 -14
45 c-15 48 -28 331 -15 329 19 -3 36 2 30 8 -4 3 1 16 10 27 13 15 10 14 -10
-3 -20 -18 -27 -21 -27 -10 0 36 33 121 65 169 19 29 35 55 35 59 0 3 -4 2 -8
-4 -12 -17 -56 -51 -48 -37 4 6 2 12 -3 12 -6 0 -11 -8 -11 -18 0 -10 -16 -47
-35 -83 -44 -83 -65 -165 -65 -252 l0 -69 -45 60 -45 59 16 54 c36 120 18 294
-41 412 -30 58 -73 118 -76 105z m158 -704 c43 -71 100 -219 108 -283 15 -116
0 -271 -25 -256 -6 4 -10 11 -10 16 0 6 -29 52 -64 102 -35 51 -79 120 -97
155 -51 98 -48 189 10 336 l11 28 18 -23 c10 -13 32 -47 49 -75z"/>
<path d="M1226 1407 c-19 -28 -31 -117 -15 -117 18 0 40 62 37 103 l-3 42 -19
-28z"/>
<path d="M1270 1377 c0 -39 35 -110 68 -137 19 -16 39 -27 43 -24 12 7 -27
103 -53 131 -32 34 -58 48 -58 30z"/>
<path d="M1241 1282 c-5 -10 -6 -24 -2 -31 11 -17 42 14 35 34 -8 20 -21 19
-33 -3z"/>
<path d="M1264 1220 c-13 -21 -21 -26 -27 -17 -6 8 -7 7 -4 -5 3 -9 1 -18 -6
-21 -8 -2 -8 -5 1 -10 7 -5 17 4 27 23 9 17 20 28 25 25 13 -8 52 14 45 26
-12 19 -44 8 -61 -21z"/>
<path d="M1328 1178 c-4 -84 3 -134 20 -158 10 -14 22 -34 26 -44 12 -34 26
-3 27 60 1 46 -5 73 -25 112 -33 64 -46 73 -48 30z"/>
<path d="M1060 2090 c-16 -10 -5 -41 12 -35 8 3 18 13 25 23 8 14 7 18 -6 19
-10 1 -23 -2 -31 -7z"/>
<path d="M1343 2044 c-28 -43 -33 -60 -33 -110 l0 -59 25 30 c32 39 47 89 43
145 l-3 45 -32 -51z"/>
<path d="M1551 2019 c-36 -34 -71 -128 -37 -100 8 7 16 8 18 4 3 -4 3 -2 2 5
-2 7 3 15 10 18 15 6 22 19 36 67 10 33 2 34 -29 6z"/>
<path d="M1105 2000 c28 -23 48 -30 79 -30 l41 1 -29 23 c-28 23 -67 36 -109
36 -16 0 -12 -6 18 -30z"/>
<path d="M1632 1964 c-28 -12 -82 -64 -66 -64 32 0 84 24 108 49 28 29 28 30
7 28 -12 -1 -34 -7 -49 -13z"/>
<path d="M1440 1951 c0 -25 19 -38 31 -20 12 19 6 33 -14 37 -11 2 -17 -3 -17
-17z"/>
<path d="M1385 1931 c-9 -16 3 -31 26 -31 14 0 19 6 17 17 -4 20 -33 29 -43
14z"/>
<path d="M1160 1875 c-10 -12 -9 -16 4 -21 18 -7 49 13 40 27 -8 14 -30 11
-44 -6z"/>
<path d="M1336 1843 c-19 -55 -20 -75 -4 -128 l11 -40 20 45 c20 44 23 89 11
143 -8 39 -20 33 -38 -20z"/>
<path d="M1563 1869 c-40 -19 -82 -64 -96 -101 -5 -15 -3 -16 36 -2 46 16 91
55 113 97 18 34 6 35 -53 6z"/>
<path d="M1080 1837 c0 -29 26 -81 54 -106 29 -27 31 -23 16 30 -11 41 -70
104 -70 76z"/>
<path d="M1974 1836 c-29 -13 -74 -59 -74 -77 0 -25 90 34 111 74 11 20 5 21
-37 3z"/>
<path d="M1755 1809 c-41 -30 -67 -71 -79 -122 l-7 -29 46 33 c29 21 54 50 66
77 30 64 22 77 -26 41z"/>
<path d="M1862 1822 c-35 -19 -81 -82 -59 -82 24 0 76 40 92 70 18 34 13 36
-33 12z"/>
<path d="M1179 1813 c-1 -10 -2 -31 -4 -48 -3 -33 29 -117 51 -136 11 -9 14
-6 16 17 3 68 -2 98 -27 140 -28 48 -34 53 -36 27z"/>
<path d="M1637 1786 c-29 -44 -44 -98 -39 -143 2 -24 7 -43 11 -43 9 0 50 81
55 110 2 14 1 43 -3 64 l-6 40 -18 -28z"/>
<path d="M855 1746 c-14 -34 -16 -99 -2 -112 2 -3 12 11 21 30 18 38 21 83 6
106 -7 12 -12 6 -25 -24z"/>
<path d="M994 1749 c-10 -17 12 -32 36 -24 17 5 19 10 9 21 -14 17 -35 18 -45
3z"/>
<path d="M1493 1742 c-5 -4 -12 -15 -16 -24 -5 -13 -2 -17 11 -15 22 3 42 16
42 27 0 11 -25 19 -37 12z"/>
<path d="M1923 1734 c-21 -8 -40 -14 -43 -15 -15 -2 40 -18 66 -18 39 -1 106
25 84 32 -38 13 -71 13 -107 1z"/>
<path d="M893 1659 c-20 -31 -28 -56 -31 -102 l-3 -62 30 35 c17 19 32 46 35
60 22 109 12 133 -31 69z"/>
<path d="M1005 1690 c-7 -11 2 -30 14 -30 4 0 18 9 31 20 l23 20 -31 0 c-17 0
-34 -4 -37 -10z"/>
<path d="M1498 1683 c-25 -6 -10 -33 18 -33 13 0 24 4 24 9 0 14 -24 28 -42
24z"/>
<path d="M1870 1682 c-14 -1 -42 -10 -63 -19 -38 -16 -38 -17 -15 -26 45 -18
89 -18 138 -2 27 9 52 20 55 24 6 10 -81 27 -115 23z"/>
<path d="M737 1663 c-10 -9 12 -43 28 -43 8 0 15 7 15 15 0 16 -34 38 -43 28z"/>
<path d="M1302 1653 c-13 -24 -14 -74 -3 -113 l7 -25 12 22 c13 24 15 87 3
118 -8 19 -8 19 -19 -2z"/>
<path d="M1551 1641 c-8 -5 -11 -16 -6 -30 7 -24 23 -28 31 -7 8 22 -9 47 -25
37z"/>
<path d="M1747 1623 c-11 -11 -8 -21 9 -27 19 -7 47 12 38 25 -6 11 -38 12
-47 2z"/>
<path d="M1480 1602 c0 -11 18 -27 42 -35 14 -5 16 -2 9 16 -8 22 -51 38 -51
19z"/>
<path d="M1713 1580 c9 -6 17 -17 17 -24 0 -20 30 -28 37 -10 7 19 -4 30 -42
38 -24 5 -26 4 -12 -4z"/>
<path d="M1070 1564 c8 -8 22 -19 32 -25 21 -11 98 -23 98 -15 0 3 -17 17 -37
31 -44 29 -115 37 -93 9z"/>
<path d="M1450 1529 c-23 -53 -27 -108 -11 -151 7 -18 10 -16 29 25 22 47 28
123 13 161 -6 15 -12 9 -31 -35z"/>
<path d="M684 1548 c6 -51 28 -96 66 -133 33 -32 40 -36 40 -20 0 57 -37 122
-92 163 -14 11 -16 10 -14 -10z"/>
<path d="M1660 1539 c-65 -39 -96 -76 -115 -137 l-7 -23 41 20 c22 12 49 31
60 42 21 23 65 109 59 115 -2 2 -19 -6 -38 -17z"/>
<path d="M1126 1501 c-3 -4 1 -17 9 -27 16 -23 40 -7 29 19 -7 18 -29 23 -38
8z"/>
<path d="M906 1485 c-9 -9 -14 -20 -11 -25 3 -4 -2 -13 -10 -20 -8 -7 -15 -16
-15 -20 0 -4 17 8 37 26 26 24 34 37 26 45 -7 7 -15 5 -27 -6z"/>
<path d="M2182 1478 c-32 -42 -49 -114 -30 -133 11 -11 49 82 46 114 -3 36 -2
35 -16 19z"/>
<path d="M1962 1463 c-33 -16 -79 -69 -69 -79 12 -12 73 28 95 61 25 39 21 42
-26 18z"/>
<path d="M1090 1460 c-21 -13 1 -33 30 -28 22 3 22 3 3 20 -12 11 -23 14 -33
8z"/>
<path d="M627 1429 c28 -49 71 -89 116 -110 71 -32 81 -26 46 26 -35 52 -71
80 -130 100 -54 19 -53 20 -32 -16z"/>
<path d="M1045 1410 c6 -52 36 -112 71 -141 11 -9 14 -6 14 17 0 52 -19 100
-56 140 l-35 39 6 -55z"/>
<path d="M1710 1422 c-48 -30 -69 -56 -93 -115 -14 -33 -14 -35 1 -30 25 10
65 35 84 54 21 21 60 98 56 110 -2 5 -24 -3 -48 -19z"/>
<path d="M925 1429 c-8 -12 14 -31 30 -26 6 2 10 10 10 18 0 17 -31 24 -40 8z"/>
<path d="M2086 1401 c-11 -29 -14 -55 -10 -78 l7 -36 18 24 c19 24 24 79 10
113 -6 16 -10 13 -25 -23z"/>
<path d="M2226 1389 c-37 -29 -72 -99 -48 -99 26 0 95 100 80 115 -3 3 -17 -4
-32 -16z"/>
<path d="M1818 1360 c-16 -28 -16 -29 0 -20 9 5 25 11 35 14 9 3 17 12 17 21
0 26 -34 16 -52 -15z"/>
<path d="M920 1365 c0 -48 24 -102 62 -138 22 -21 42 -36 45 -33 3 2 -2 28
-11 58 -10 37 -28 65 -56 93 -33 32 -40 36 -40 20z"/>
<path d="M1551 1326 c-27 -39 -35 -62 -38 -105 l-4 -56 35 39 c35 39 52 94 44
147 -3 22 -6 20 -37 -25z"/>
<path d="M1885 1351 l-40 -18 40 -9 c56 -11 65 -11 114 5 35 11 40 16 27 23
-32 18 -101 17 -141 -1z"/>
<path d="M2026 1298 c-10 -37 -6 -91 8 -123 l14 -30 11 28 c14 36 14 75 0 116
-13 37 -24 40 -33 9z"/>
<path d="M2235 1307 c-42 -25 -61 -43 -83 -79 -15 -27 -18 -38 -8 -38 26 0 81
47 104 88 24 43 22 48 -13 29z"/>
<path d="M1030 1285 c0 -22 34 -87 56 -106 11 -9 34 -24 51 -33 l33 -16 -10
25 c-22 58 -43 86 -85 115 -35 24 -45 27 -45 15z"/>
<path d="M756 1283 c-17 -18 -3 -33 30 -33 29 0 33 2 22 13 -17 17 -44 27 -52
20z"/>
<path d="M1695 1230 c32 -35 78 -58 135 -65 52 -7 54 -7 40 10 -32 40 -103 75
-149 75 -44 0 -44 0 -26 -20z"/>
<path d="M771 1221 c-8 -5 -11 -16 -8 -25 5 -14 11 -15 27 -6 21 11 23 31 4
37 -5 1 -15 -1 -23 -6z"/>
<path d="M1648 1194 c-16 -8 -28 -16 -28 -17 0 -1 17 -2 38 -2 25 0 37 4 37
14 0 21 -16 22 -47 5z"/>
<path d="M1987 1154 c-18 -41 -21 -60 -19 -111 2 -43 14 -42 35 2 17 37 21 96
8 129 -6 15 -10 12 -24 -20z"/>
<path d="M2153 1172 c-5 -4 -12 -14 -16 -23 -5 -14 -1 -16 21 -10 14 4 27 12
29 18 5 13 -20 24 -34 15z"/>
<path d="M760 1163 c-45 -9 -42 -20 12 -43 55 -25 140 -30 186 -13 22 8 20 10
-25 33 -47 23 -122 34 -173 23z"/>
<path d="M1642 1134 c2 -11 11 -20 22 -22 13 -3 17 1 14 14 -2 11 -11 20 -22
22 -13 3 -17 -1 -14 -14z"/>
<path d="M1582 1080 c-29 -29 -44 -55 -52 -91 -7 -27 -10 -52 -7 -55 3 -3 23
12 45 34 28 28 43 54 52 91 7 29 10 54 8 57 -3 2 -23 -14 -46 -36z"/>
<path d="M2148 1113 c-16 -4 -16 -6 -4 -19 15 -15 56 -19 56 -6 0 10 -22 32
-29 31 -4 -1 -14 -3 -23 -6z"/>
<path d="M927 1068 c-58 -26 -47 -38 35 -38 53 0 128 24 128 41 0 8 -52 19
-89 19 -14 -1 -48 -10 -74 -22z"/>
<path d="M1702 1060 c-38 -17 -91 -64 -92 -81 -1 -18 85 18 115 48 55 55 48
65 -23 33z"/>
<path d="M1110 1052 c0 -13 61 -105 79 -120 22 -17 62 -38 89 -47 l23 -7 -25
51 c-26 50 -62 84 -123 115 -36 18 -43 19 -43 8z"/>
<path d="M2115 1039 c-17 -4 -44 -22 -60 -39 l-29 -30 45 6 c44 6 96 32 119
59 11 13 8 15 -16 14 -16 0 -43 -5 -59 -10z"/>
<path d="M1856 1021 c-3 -4 1 -17 9 -27 11 -15 16 -16 26 -7 10 10 9 15 -1 28
-14 17 -26 19 -34 6z"/>
<path d="M1917 1017 c-7 -19 8 -41 22 -33 16 10 14 46 -3 46 -8 0 -16 -6 -19
-13z"/>
<path d="M1080 1005 c-10 -12 -10 -18 0 -30 11 -13 15 -13 21 -3 11 17 11 48
0 48 -5 0 -14 -7 -21 -15z"/>
<path d="M1017 994 c-10 -10 4 -32 31 -50 20 -13 24 -14 15 -2 -7 8 -10 18 -6
21 3 4 0 13 -7 22 -13 16 -23 19 -33 9z"/>
<path d="M900 959 c0 -26 110 -70 152 -61 15 3 14 7 -10 26 -15 12 -36 26 -47
31 -28 11 -95 14 -95 4z"/>
<path d="M1764 963 c-27 -5 -106 -72 -99 -83 6 -10 77 5 114 24 14 8 37 26 50
40 l24 26 -34 -1 c-19 -1 -44 -4 -55 -6z"/>
<path d="M1905 959 c-4 -6 -5 -12 -2 -15 2 -3 7 2 10 11 7 17 1 20 -8 4z"/>
<path d="M1607 942 c-32 -13 -97 -69 -97 -83 0 -8 52 -1 85 11 27 10 95 68 95
81 0 12 -45 7 -83 -9z"/>
<path d="M2008 944 c-21 -9 -38 -20 -38 -24 0 -9 51 -20 96 -20 42 0 118 30
107 41 -18 18 -127 20 -165 3z"/>
<path d="M844 861 c-63 -28 -56 -39 26 -40 76 -1 176 58 103 60 -16 0 -38 2
-51 3 -12 2 -48 -9 -78 -23z"/>
<path d="M1041 824 c0 -11 3 -14 6 -6 3 7 2 16 -1 19 -3 4 -6 -2 -5 -13z"/>
<path d="M1061 824 c0 -11 3 -14 6 -6 3 7 2 16 -1 19 -3 4 -6 -2 -5 -13z"/>
<path d="M1114 801 c26 -29 79 -51 121 -51 34 0 36 2 24 17 -20 24 -89 53
-128 53 -33 0 -34 -1 -17 -19z"/>
<path d="M1079 776 c5 -11 18 -22 30 -24 36 -6 22 31 -16 40 -19 5 -20 3 -14
-16z"/>
<path d="M1036 758 c-6 -24 11 -51 25 -42 13 8 11 34 -5 49 -12 12 -15 11 -20
-7z"/>
<path d="M961 754 c0 -11 3 -14 6 -6 3 7 2 16 -1 19 -3 4 -6 -2 -5 -13z"/>
<path d="M1560 766 c0 -2 8 -10 18 -17 15 -13 16 -12 3 4 -13 16 -21 21 -21
13z"/>
<path d="M1487 718 c6 -49 16 -70 52 -115 34 -43 45 -42 38 6 -7 54 -35 108
-67 131 l-28 20 5 -42z"/>
<path d="M1622 738 c6 -16 36 -34 44 -26 3 4 4 14 1 23 -7 17 -51 21 -45 3z"/>
<path d="M1190 729 c-19 -3 -53 -15 -75 -26 l-40 -21 28 -7 c41 -11 117 0 155
22 17 10 32 21 32 24 0 10 -61 15 -100 8z"/>
<path d="M1445 718 c-39 -44 -44 -54 -50 -103 l-6 -50 30 32 c29 32 55 100 49
130 -2 11 -8 10 -23 -9z"/>
<path d="M922 714 c-15 -17 -13 -45 4 -51 14 -5 23 26 15 49 -5 14 -8 14 -19
2z"/>
<path d="M964 719 c-10 -17 23 -46 38 -31 8 8 8 15 -2 27 -15 18 -26 19 -36 4z"/>
<path d="M1577 718 c-6 -18 12 -50 24 -43 15 10 11 55 -5 55 -8 0 -16 -6 -19
-12z"/>
</g>
</svg>
