<?xml version="1.0" standalone="no"?>
<!DOCTYPE svg PUBLIC "-//W3C//DTD SVG 1.1//EN" "http://www.w3.org/Graphics/SVG/1.1/DTD/svg11.dtd" >
<svg xmlns="http://www.w3.org/2000/svg" xmlns:xlink="http://www.w3.org/1999/xlink" version="1.1">
<metadata></metadata>
<defs>
<font id="cochinregular" horiz-adv-x="1024" >
<font-face units-per-em="2048" ascent="1638" descent="-410" />
<missing-glyph horiz-adv-x="512" />
<glyph horiz-adv-x="0" />
<glyph unicode="&#xd;" />
<glyph unicode=" "  horiz-adv-x="512" />
<glyph unicode="&#x09;" horiz-adv-x="512" />
<glyph unicode="&#xa0;" horiz-adv-x="512" />
<glyph unicode="!" horiz-adv-x="796" d="M242 1294q29 -20 47 -46.5t29.5 -62.5t16.5 -83t5 -111q0 -47 -6 -96t-6 -96q0 -104 12 -205.5t33 -204.5q4 -23 8 -41t6 -33h27q0 63 2 126t2 126q0 53 12 123t26.5 152t27 174t12.5 188q0 37 -7.5 74t-11.5 74l-235 -41v-17zM287 102q0 -49 33.5 -81.5t80.5 -32.5 t81 32.5t34 81.5t-34 82t-81 33t-80.5 -32.5t-33.5 -82.5z" />
<glyph unicode="&#x22;" horiz-adv-x="681" d="M135 1229q0 -12 2 -23l33 -418q0 -6 1 -16t4 -21.5t8 -18.5t18 -7q12 0 17 7t8 18.5t4 21.5t1 16l33 418q2 10 2 23v28q0 68 -17.5 91.5t-47.5 23.5q-31 0 -48.5 -23.5t-17.5 -91.5v-28zM416 1229q0 -12 2 -23l33 -418q0 -6 1 -16t4 -21.5t8 -18.5t17 -7t17.5 7t8.5 18.5 t4 21.5t1 16l33 418q2 10 2 23v28q0 68 -17.5 91.5t-48.5 23.5t-48 -23.5t-17 -91.5v-28z" />
<glyph unicode="#" d="M35 520l6 -90h209l-60 -430h103l61 430h269l-62 -430h103l61 430h211l-6 90h-193l41 291h211l-6 90h-192l59 430h-102l-62 -430h-268l61 430h-102l-62 -430h-227l6 -90h209l-41 -291h-227zM365 520l43 291h268l-43 -291h-268z" />
<glyph unicode="$" d="M47 389l78 -377q35 20 68 21q66 0 127 -16.5t126 -16.5v-188h70v188q168 29 268.5 127t100.5 270q0 115 -94.5 203t-274.5 174v496q55 -8 105.5 -34t90.5 -63.5t69.5 -85t47.5 -96.5l23 6l-39 293q-10 -8 -24.5 -10t-28.5 -2q-18 0 -49 8t-67 18.5t-69.5 18.5t-58.5 8 v189h-70v-189q-66 0 -129 -20.5t-114 -60.5t-82 -96t-31 -130q0 -84 33 -143.5t84 -102.5t114.5 -77.5t124.5 -69.5v-570q-68 0 -126 30t-105 77t-82 107.5t-57 121.5zM238 1067q0 92 61 147.5t147 55.5v-463q-39 23 -76.5 46.5t-66.5 54t-47 69.5t-18 90zM516 61v543 q43 -23 83 -50.5t70.5 -62t49 -78.5t18.5 -98q0 -100 -59.5 -172.5t-161.5 -81.5z" />
<glyph unicode="%" horiz-adv-x="1705" d="M72 936q0 -106 28.5 -183t72.5 -127.5t96.5 -74t99.5 -23.5t99 23.5t96 74t73 127t29 183.5q0 106 -29 183t-73 127t-96 73.5t-99 23.5t-99.5 -23.5t-96.5 -73.5t-72.5 -127t-28.5 -183zM207 940q0 102 13 171t36 111t52.5 59t62.5 17t62.5 -17t51 -59t33.5 -111t12 -171 t-12 -172t-33.5 -113t-51.5 -62.5t-62 -19.5q-33 0 -62.5 19.5t-52.5 62.5t-36 113t-13 172zM406 -12h77l756 1355h-80zM977 395q0 -106 28.5 -183t72.5 -127t96.5 -73.5t99.5 -23.5t99 23.5t96 73.5t73 127t29 183t-29 183t-73 127.5t-96 74t-99 23.5t-99.5 -23.5 t-96.5 -74t-72.5 -127.5t-28.5 -183zM1112 399q0 102 13.5 171t36 111t52 59.5t62.5 17.5t62.5 -17.5t51 -59.5t34 -110.5t12.5 -171.5q0 -102 -12.5 -171.5t-34 -112.5t-51 -62.5t-62.5 -19.5t-62.5 19.5t-52 62.5t-36 112.5t-13.5 171.5z" />
<glyph unicode="&#x26;" horiz-adv-x="1517" d="M125 334q0 -80 28.5 -148.5t79 -119t119 -79t148.5 -28.5q113 0 209 49t178 123l65 -139q57 4 112.5 6t113.5 2q23 0 52.5 -1t62 -2t63 -2t53.5 -3v24q-133 20 -232.5 79t-162.5 181q53 80 94 169.5t82 170.5q29 57 58.5 107.5t65.5 88.5t80 59.5t99 21.5v25 q-53 -4 -106.5 -6.5t-106.5 -2.5q-59 0 -120.5 2t-121.5 7v-21q49 -14 82 -38.5t33 -76.5q0 -43 -18.5 -107.5t-44 -131t-54 -126t-51.5 -91.5q-61 117 -126.5 230.5t-164.5 205.5q49 23 93 44t78 51t54.5 72t20.5 101q0 78 -27.5 130t-74.5 85t-109.5 46.5t-130.5 13.5 q-55 0 -109.5 -17.5t-98.5 -49.5t-71.5 -79t-27.5 -108q0 -55 23.5 -97.5t58.5 -77t78 -62.5t81 -56q-74 -20 -147.5 -57t-130.5 -90.5t-93 -122t-36 -154.5zM305 375q0 135 77 224t202 124q51 -57 91 -124t71.5 -136.5t60.5 -141t57 -143.5q-47 -47 -118.5 -75.5 t-137.5 -28.5q-70 0 -126 26.5t-96 68.5t-60.5 96.5t-20.5 109.5zM455 1047q0 37 10 72.5t29.5 64t49 46t68.5 17.5q47 0 81 -19.5t57.5 -52t35 -76.5t11.5 -91q0 -53 -16.5 -88t-40 -57.5t-50 -38t-45.5 -27.5q-2 0 -31.5 17t-64.5 49t-64.5 79.5t-29.5 104.5z" />
<glyph unicode="'" horiz-adv-x="454" d="M162 1229q0 -12 2 -23l33 -418q0 -6 1 -16t4 -21.5t8 -18.5t17 -7t17.5 7t8.5 18.5t4 21.5t1 16l33 418q2 10 2 23v28q0 68 -17.5 91.5t-48.5 23.5t-48 -23.5t-17 -91.5v-28z" />
<glyph unicode="(" horiz-adv-x="796" d="M178 500q0 -150 47 -277t124 -237.5t178.5 -207.5t207.5 -188l27 21q-88 86 -163 183t-128 208t-83 234.5t-30 263.5q0 133 25 249.5t74 224t123.5 210t175.5 205.5l-19 20q-106 -80 -207.5 -179.5t-179.5 -214t-125 -244.5t-47 -271z" />
<glyph unicode=")" horiz-adv-x="796" d="M0 1389q90 -86 164 -183.5t127 -208t82.5 -234.5t29.5 -263q0 -133 -24.5 -250t-73.5 -224.5t-124 -210t-175 -204.5l19 -21q109 80 209 179.5t177.5 214t125 244.5t47.5 272q0 150 -47.5 276.5t-124 237t-177 208t-208.5 187.5z" />
<glyph unicode="*" d="M139 999q0 -35 28 -52t62 -13q41 6 81 21.5t81 29.5v29q-41 14 -81 29.5t-81 21.5q-35 4 -62.5 -13.5t-27.5 -52.5zM230 794q-7 -32 18 -59q27 -25 58.5 -17.5t51.5 36.5q25 35 42.5 73.5t35.5 75.5l-20 21q-37 -18 -76 -36t-74 -42q-29 -20 -36 -52zM230.5 1205.5 q7.5 -31.5 35.5 -52.5q35 -25 74 -42t76 -36l20 21q-18 37 -35.5 75.5t-42.5 73.5q-20 29 -52 36t-58 -17q-25 -27 -17.5 -58.5zM446 717q-4 -35 13.5 -62.5t52.5 -27.5t52.5 27.5t13.5 62.5q-6 41 -21.5 81t-30.5 81h-28q-14 -41 -29.5 -81t-22.5 -81zM446 1282 q6 -41 22.5 -81t29.5 -81h28q12 41 28.5 81t23.5 81q4 35 -13.5 62.5t-52.5 27.5t-52.5 -27.5t-13.5 -62.5zM588 903q18 -37 35.5 -76t42.5 -73q20 -29 52 -36t58 17q25 27 17.5 58.5t-35.5 52.5q-35 25 -74 42t-76 36zM588 1096l20 -21q37 18 76 35.5t74 42.5q29 20 36 52 t-18 59q-27 25 -58.5 17.5t-51.5 -36.5q-25 -35 -42.5 -73.5t-35.5 -75.5zM633 985q41 -14 81 -29.5t81 -21.5q35 -4 62.5 13.5t27.5 51.5q0 35 -28 52.5t-62 13.5q-41 -6 -81 -21.5t-81 -29.5v-29z" />
<glyph unicode="+" d="M137 326h324v-326h102v326h324v102h-324v326h-102v-326h-324v-102z" />
<glyph unicode="," horiz-adv-x="512" d="M29 -219l22 -23q49 33 97.5 69t87 79t62.5 95t24 118t-23 100.5t-76 34.5q-41 0 -71.5 -26.5t-30.5 -71.5q0 -20 6 -39t12 -39.5t12.5 -43t6.5 -50.5q0 -27 -12.5 -56.5t-31 -57.5t-41 -51.5t-44.5 -37.5z" />
<glyph unicode="-" horiz-adv-x="681" d="M61 301q45 12 90.5 16.5t92.5 4.5q35 0 83 -8.5t97 -8.5q55 0 106 12l23 152q-33 -10 -64.5 -15t-66.5 -5q-57 0 -112.5 8t-112.5 8q-59 0 -121 -16z" />
<glyph unicode="." horiz-adv-x="512" d="M115 102q0 -49 33.5 -81.5t80.5 -32.5t81 32.5t34 81.5t-34 82t-81 33t-80.5 -32.5t-33.5 -82.5z" />
<glyph unicode="/" horiz-adv-x="569" d="M-37 -41h105l538 1413h-104z" />
<glyph unicode="0" d="M92 666q0 -193 37 -326t95.5 -216t134 -120t151.5 -37q78 0 152.5 37t134 120t96.5 216t37 326t-37 325.5t-96.5 215.5t-134 120t-152.5 37q-76 0 -151.5 -37t-134 -120t-95.5 -216t-37 -325zM272 668q0 145 14.5 263t44 200.5t75 127t106.5 44.5t105.5 -44.5t74 -127 t44 -200.5t14.5 -263t-14.5 -264t-44 -202t-74 -128t-105.5 -45t-106.5 45t-75 128t-44 201.5t-14.5 264.5z" />
<glyph unicode="1" d="M199 -8q72 4 141.5 6t140.5 2q80 0 160 -2t160 -6v24q-61 8 -103.5 16.5t-67 23t-34.5 37t-10 54.5v1217h-47q-72 -41 -161 -59.5t-169 -22.5v-33q72 -2 114 -9t63.5 -31.5t28.5 -70.5t7 -124v-772q0 -70 -12.5 -111t-40 -64.5t-69.5 -33.5t-101 -17v-24z" />
<glyph unicode="2" d="M29 25l12 -33q104 4 206.5 6t207.5 2q78 0 155.5 -2t155.5 -6l141 284l-24 21q-37 -51 -63.5 -82t-56.5 -47t-69 -22.5t-100 -6.5h-369q74 78 181.5 171t208 197.5t171 217.5t70.5 229q0 197 -109.5 303.5t-308.5 106.5q-74 0 -139.5 -25.5t-114.5 -71.5t-77.5 -108.5 t-28.5 -138.5q0 -29 7 -57.5t21.5 -52t38 -39t56.5 -15.5q41 0 69.5 22.5t28.5 65.5q0 33 -11.5 55.5t-25.5 41t-25.5 38t-11.5 43.5q0 51 19.5 86t51.5 55.5t73 30t84 9.5q59 0 101 -29t69.5 -73t40 -98t12.5 -104q0 -98 -29 -187t-76 -172t-107.5 -156.5t-125.5 -141.5z " />
<glyph unicode="3" d="M45 238q0 -72 35 -123.5t89 -84t119.5 -48t127.5 -15.5q115 0 204 35t149 94.5t92 137t32 163.5q0 98 -26.5 171t-70.5 122t-102.5 72.5t-124.5 23.5q-61 0 -114 -12l-4 4l493 533l-10 28q-35 -2 -85 -3t-103.5 -2t-103.5 -2t-85 -1q-86 0 -168 2t-168 6l-71 -327l28 -4 q14 29 28.5 60.5t33 58t44 44t64.5 17.5h371l-453 -537l39 -30q47 47 85 69.5t104 22.5q55 0 96 -29t68.5 -72t41 -95t13.5 -99q0 -70 -12.5 -139.5t-43 -125t-84 -90t-135.5 -34.5q-27 0 -62.5 7t-67.5 22.5t-53.5 40t-21.5 59.5q0 18 5.5 36.5t5.5 36.5q0 51 -19.5 89 t-79.5 38q-53 0 -76.5 -35.5t-23.5 -84.5z" />
<glyph unicode="4" d="M-31 446l8 -34h662v-412h147v1118h-14l-133 -131v-444h-498l779 846v24h-107q-199 -254 -420 -498.5t-424 -468.5z" />
<glyph unicode="5" d="M59 231q0 -63 36 -112t89.5 -83t115.5 -51.5t118 -17.5q100 0 189 29t155.5 84t105.5 137t39 189q0 104 -31.5 178.5t-89 123t-133 72t-166.5 23.5q-70 0 -127 -19.5t-104 -42.5l129 430q27 -6 54.5 -11t54.5 -5q123 0 215 46t190 114l-29 33q-47 -31 -100 -48.5 t-108 -17.5q-18 0 -43 3t-49.5 9t-46 15.5t-34.5 21.5h-149l-209 -801l45 -12q33 92 97.5 149.5t168.5 57.5q74 0 127.5 -27.5t89 -75t52 -109.5t16.5 -132q0 -88 -24.5 -154.5t-64.5 -110.5t-88 -65.5t-97 -21.5q-27 0 -63 7t-68.5 21.5t-55 35t-22.5 46.5q0 29 8 47.5 t8 59.5q0 53 -30.5 82.5t-73.5 29.5q-53 0 -75 -34.5t-22 -92.5z" />
<glyph unicode="6" d="M63 492q0 -106 26 -202.5t79 -167.5t138 -113t204 -42q100 0 176 36t127 92.5t76.5 128t25.5 141.5q0 119 -34.5 197.5t-93 126.5t-134 68.5t-155.5 20.5q-31 0 -67 -10t-70.5 -25.5t-66.5 -36t-56 -38.5q6 102 48 208.5t109.5 193.5t157.5 143.5t192 56.5q27 0 45.5 -4 t35 -8.5t32.5 -8.5t35 -4q25 0 45 18.5t20 49.5q0 25 -25.5 38t-49.5 13q-166 0 -314.5 -72.5t-260 -194.5t-178.5 -278.5t-67 -326.5zM244 428q0 49 13 98t41 90t70 67t97 26q78 0 129 -33t83 -86t45 -118.5t13 -133.5q0 -55 -12 -111.5t-40 -100.5t-72 -72.5t-109 -28.5 q-31 0 -76 18t-85 64.5t-68.5 124t-28.5 196.5z" />
<glyph unicode="7" d="M66 0h174q25 137 105.5 309t191 350.5t235.5 347.5t236 300l-15 32q-20 -2 -51 -3t-63.5 -2t-63.5 -2t-51 -1h-266q-76 0 -151 2t-150 6l-82 -333l24 -2q16 27 30.5 57.5t34 57t45 44t62.5 17.5h514v-13q-47 -61 -113.5 -141t-140 -174t-150.5 -198.5t-145.5 -214 t-124 -221.5t-85.5 -218z" />
<glyph unicode="8" d="M31 346q0 -90 37.5 -160.5t99 -119t141.5 -74t164 -25.5q90 0 171 23.5t144.5 72t100.5 120t37 169.5q0 66 -29 121t-73 102.5t-96 87t-99 74.5q51 23 95 51.5t77 67.5t52 87t19 108q0 78 -33.5 136t-88 97t-123 59.5t-138.5 20.5q-74 0 -144.5 -20.5t-125.5 -60.5 t-90 -101.5t-35 -143.5q0 -51 23.5 -97t59.5 -85t78 -71.5t81 -57.5q-61 -27 -116.5 -63.5t-97.5 -82.5t-66.5 -104.5t-24.5 -130.5zM190 397q0 98 51.5 179t143.5 122q53 -43 120.5 -85t128 -91t102.5 -109.5t42 -140.5q0 -61 -21.5 -107t-59.5 -76t-88 -45t-107 -15 q-74 0 -131.5 29.5t-97.5 79.5t-61.5 117t-21.5 142zM254 1094q0 92 59.5 150.5t151.5 58.5q119 0 189.5 -74t70.5 -193q0 -92 -33 -155.5t-110 -114.5q-43 29 -99.5 63.5t-107.5 74.5t-86 87t-35 103z" />
<glyph unicode="9" d="M51 16v-49q236 0 398.5 59.5t264 169t146.5 265t45 348.5q0 106 -21.5 205.5t-72.5 177.5t-134 125t-206 47q-88 0 -164 -28.5t-132 -81t-88 -125t-32 -162.5q0 -193 112 -303.5t304 -110.5q70 0 134.5 22.5t121.5 61.5q-8 -143 -53 -258t-129 -196t-207 -124t-287 -43z M236 991q0 51 10 106.5t34.5 100.5t67 75t105.5 30q76 0 128 -43t83.5 -105.5t46 -135.5t14.5 -134q0 -57 -11.5 -106.5t-38 -86.5t-69.5 -57.5t-104 -20.5q-68 0 -117 38t-83 94.5t-50 123t-16 121.5z" />
<glyph unicode=":" horiz-adv-x="512" d="M115 102q0 -49 33.5 -81.5t80.5 -32.5t81 32.5t34 81.5t-34 82t-81 33t-80.5 -32.5t-33.5 -82.5zM115 664q0 -49 33.5 -82t80.5 -33t81 32.5t34 82.5q0 49 -34 81.5t-81 32.5t-80.5 -32.5t-33.5 -81.5z" />
<glyph unicode=";" horiz-adv-x="512" d="M29 -219l22 -23q49 33 97.5 69t87 79t62.5 95t24 118t-23 100.5t-76 34.5q-41 0 -71.5 -26.5t-30.5 -71.5q0 -20 6 -39t12 -39.5t12.5 -43t6.5 -50.5q0 -27 -12.5 -56.5t-31 -57.5t-41 -51.5t-44.5 -37.5zM115 664q0 -49 33.5 -82t80.5 -33t81 32.5t34 82.5 q0 49 -34 81.5t-81 32.5t-80.5 -32.5t-33.5 -81.5z" />
<glyph unicode="&#x3c;" d="M137 313l750 -325v100l-656 277l656 299v102l-750 -350v-103z" />
<glyph unicode="=" d="M137 182h750v103h-750v-103zM137 471h750v102h-750v-102z" />
<glyph unicode="&#x3e;" d="M137 -12l750 325v103l-750 350v-102l656 -299l-656 -277v-100z" />
<glyph unicode="?" d="M164 1079q0 -23 3 -46t11 -44l146 39q-4 25 -8.5 50.5t-4.5 47.5q0 80 36 140.5t126 60.5q43 0 74 -18.5t49 -47t26.5 -65.5t8.5 -74q0 -68 -15.5 -122t-39 -102t-50 -94t-50 -97.5t-39 -110.5t-15.5 -133q0 -35 5 -71t9 -73h27q-4 104 31 197q33 86 86 150.5t104 125 t89 128t38 159.5q0 66 -24.5 120t-67.5 92t-99.5 59.5t-119.5 21.5q-68 0 -128.5 -18.5t-106.5 -54t-73.5 -91t-27.5 -129.5zM352 98q0 -49 34 -81.5t81 -32.5t81 32.5t34 81.5t-34 82t-81 33t-81 -33t-34 -82z" />
<glyph unicode="@" horiz-adv-x="1638" d="M109 635q0 -104 45 -222t138 -219.5t238.5 -168t346.5 -66.5q121 0 226 36t206 79l-29 53q-43 -20 -87 -37.5t-91 -31t-103.5 -21.5t-124.5 -8q-139 0 -251.5 50t-191.5 132t-121 186.5t-42 214.5q0 170 45 302.5t125 222.5t187.5 136t230.5 46q143 0 256 -53.5 t189.5 -134t116.5 -178t40 -185.5q0 -68 -18.5 -142.5t-54 -136t-87 -102.5t-118.5 -41q-37 0 -54.5 16.5t-23.5 38t-3 42t5 30.5l133 528h-137l-23 -81q-10 18 -20 37.5t-26.5 35t-40 24.5t-58.5 9q-104 0 -180 -56.5t-126.5 -135t-75 -161.5t-24.5 -136q0 -88 23.5 -139.5 t56.5 -77t66 -31.5t53 -6q45 4 84 22.5t69.5 41t52 45t30.5 34.5h4q0 -10 9 -33.5t30.5 -48.5t56.5 -44t86 -19q92 0 162.5 47t120 119.5t74 158.5t24.5 164q0 129 -52.5 239.5t-142.5 190.5t-213 126t-264 46q-152 0 -288 -53t-238.5 -150.5t-161.5 -232.5t-59 -301z M666 537q0 96 31.5 170.5t76.5 127t95.5 80t86.5 27.5q91 0 91 -131q-10 -111 -38 -193.5t-63 -139t-73.5 -85t-69.5 -28.5q-57 0 -97 38.5t-40 133.5z" />
<glyph unicode="A" horiz-adv-x="1441" d="M-4 -8q66 4 124 6t120 2q63 0 124.5 -2t122.5 -6v24q-23 4 -55.5 14.5t-63 28t-52 44t-21.5 63.5q0 14 5 26.5t11 28.5l135 371h428l134 -377q4 -14 11 -30.5t7 -32.5q0 -57 -58.5 -91t-144.5 -45v-24q35 2 65 3t62.5 2t73.5 2t96 1q84 0 164 -2t162 -6v24 q-100 12 -151.5 58.5t-80.5 126.5l-426 1171q-47 -18 -85.5 -34.5t-92.5 -26.5q10 -16 17.5 -37t7.5 -31t-5 -22.5t-12 -26.5l-354 -870q-20 -51 -41.5 -101.5t-50.5 -91.5t-71 -70.5t-105 -44.5v-24zM467 653l201 521l184 -521h-385z" />
<glyph unicode="B" horiz-adv-x="1402" d="M76 1315q74 -6 114.5 -22.5t62 -51.5t27 -91t5.5 -142v-684q0 -86 -5.5 -142.5t-26 -91.5t-61 -51t-112.5 -23v-24q47 4 95 6t95 2q139 0 277.5 -10t277.5 -10q90 0 176 15t154 53t109 100.5t41 156.5q0 154 -79 247t-220 138v4q43 14 79.5 41t64.5 63t43 79t15 88 q0 111 -53 184.5t-133 117.5t-175 62.5t-181 18.5q-94 0 -176 -8.5t-164 -8.5q-63 0 -125 2t-125 6v-24zM469 111v573q59 -23 122.5 -30t127.5 -7q51 0 100 7.5t99 15.5q72 -49 127 -124t55 -165q0 -166 -93.5 -253t-258.5 -87q-39 0 -85.5 5t-86 14.5t-69.5 22.5t-38 28z M469 750v512q47 16 94 20t96 4q68 0 130.5 -21.5t109.5 -61.5t76 -95t29 -125q0 -137 -87.5 -210t-218.5 -73q-59 0 -116.5 10.5t-112.5 39.5z" />
<glyph unicode="C" horiz-adv-x="1441" d="M98 666q0 -156 54.5 -286t146.5 -223.5t215 -145.5t260 -52q121 0 217 28.5t178 84t152 135.5t139 184l-51 41q-106 -166 -245.5 -262t-327.5 -96q-127 0 -224.5 50t-162 134t-97.5 195.5t-33 234.5t26 233.5t82 194.5t145.5 133t213.5 49q98 0 177 -31.5t139.5 -89 t104.5 -135t71 -170.5h29q-6 43 -12.5 101.5t-11.5 119t-9 118t-4 100.5q-55 2 -111.5 11t-116 20.5t-126 20.5t-142.5 9q-137 0 -260 -52t-215 -145.5t-146.5 -223.5t-54.5 -285z" />
<glyph unicode="D" horiz-adv-x="1705" d="M80 -8q70 4 137.5 6t136.5 2q43 0 90.5 -1t106.5 -1t139 -1t189 -1q143 0 275 35t234.5 111.5t164 196.5t61.5 290q0 168 -63.5 303t-173 230t-255 146.5t-311.5 51.5q-66 0 -127 -4t-124.5 -10.5t-129 -10.5t-137.5 -4q-53 0 -106.5 2t-106.5 6v-24q72 -6 111.5 -20.5 t60 -39t26 -58.5t5.5 -79v-946q0 -25 -6.5 -49.5t-28 -46t-61.5 -37.5t-107 -23v-24zM467 156v669q0 109 2 215.5t10 212.5q66 29 132.5 43.5t140.5 14.5q139 0 256.5 -49.5t202.5 -135.5t133.5 -201.5t48.5 -248.5q0 -307 -144.5 -469t-460.5 -162q-86 0 -171 24.5 t-150 86.5z" />
<glyph unicode="E" horiz-adv-x="1402" d="M76 1315q74 -6 117 -22.5t63 -51.5t25.5 -91t5.5 -142v-684q0 -86 -5.5 -142.5t-25.5 -91.5t-61 -51t-115 -23v-24q59 4 118.5 6t118.5 2h770q35 0 72 -2t72 -6l186 411l-22 19q-74 -98 -145.5 -168t-152.5 -115t-178.5 -65.5t-220.5 -20.5q-57 0 -124.5 9.5t-102.5 17.5 v633h131q82 0 140.5 -10.5t100.5 -39t67.5 -83t43.5 -140.5h25q0 74 -2 148t-2 147q0 72 2 145.5t2 147.5h-25q-18 -150 -101 -206t-224 -56q-41 0 -79 -2t-79 -2v512q145 12 287 12q78 0 147.5 -12t128 -47t102.5 -97.5t70 -160.5l27 8q-4 55 -8 101t-4 91v82t4 88 q-147 -4 -290.5 -6t-287.5 -2q-94 0 -169 1t-141.5 2t-129 2t-131.5 3v-24z" />
<glyph unicode="F" horiz-adv-x="1290" d="M76 -8q76 4 150.5 6t150.5 2q88 0 174 -2t174 -6v24q-82 16 -132 30.5t-75.5 41.5t-34 73t-8.5 128v424h96q45 0 82 -4q66 -6 111 -20.5t76.5 -45.5t54.5 -80t43 -127h25q-4 72 -5.5 134.5t-1.5 136.5q0 141 7 278h-25q-41 -117 -108.5 -168t-190.5 -51h-164v508 q39 0 74 2t69 2q109 0 198 -6t160 -36t123 -94.5t85 -180.5h33q-4 53 -6.5 105t-2.5 105q0 41 2 83t7 85q-88 -2 -168 -5t-185 -3h-444q-27 0 -74 1t-97 2t-97.5 2t-75.5 3v-24q74 -6 115.5 -22.5t64.5 -51.5t29 -91t6 -142v-684q0 -86 -6 -142.5t-29 -91.5t-64.5 -51 t-115.5 -23v-24z" />
<glyph unicode="G" horiz-adv-x="1593" d="M102 666q0 -172 63.5 -303.5t166 -221.5t233.5 -136t269 -46q129 0 267 40t279 87v287q0 49 15.5 80.5t41 50t62.5 27t80 10.5v24q-76 -4 -151.5 -6t-151.5 -2q-82 0 -147.5 3t-143.5 5v-24q211 -6 211 -146v-264q-82 -59 -177 -78.5t-192 -19.5q-117 0 -208 51 t-155.5 137t-98 202t-33.5 245q0 115 33.5 229.5t98 206.5t156 149.5t207.5 57.5q100 0 175 -35t132.5 -92.5t101.5 -131t83 -151.5h24q-6 35 -14 88t-15 111.5t-13.5 113t-6.5 86.5q-39 10 -85 23.5t-101 24t-122.5 17.5t-151.5 7q-137 0 -268.5 -54t-234 -148.5 t-166 -223.5t-63.5 -280z" />
<glyph unicode="H" horiz-adv-x="1705" d="M76 1315q74 -6 117 -22.5t64.5 -51.5t26.5 -91t5 -142v-684q0 -86 -5 -142.5t-26.5 -91.5t-62.5 -51t-115 -23v-24q74 4 147.5 6t149.5 2q78 0 155.5 -2t155.5 -6v24q-76 6 -119 22.5t-64.5 51.5t-26.5 91.5t-5 142.5v368h760v-368q0 -86 -5 -142.5t-26.5 -91.5 t-62.5 -51t-115 -23v-24q74 4 147.5 6t149.5 2q78 0 155.5 -2t155.5 -6v24q-76 6 -119 22.5t-64.5 51.5t-26.5 91.5t-5 142.5v684q0 86 5 142t25.5 91t61.5 51.5t113 22.5v24q-66 -4 -133.5 -6t-134.5 -2q-84 0 -167 2t-167 6v-24q74 -6 117 -22.5t64.5 -51.5t26.5 -91 t5 -142v-250h-760v250q0 86 5 142t25.5 91t61.5 51.5t113 22.5v24q-66 -4 -133.5 -6t-134.5 -2q-84 0 -167 2t-167 6v-24z" />
<glyph unicode="I" horiz-adv-x="796" d="M92 1315q74 -6 117 -22.5t64.5 -51.5t26.5 -91t5 -142v-684q0 -86 -5 -142.5t-26.5 -91.5t-62.5 -51t-115 -23v-24q74 4 147.5 6t149.5 2q78 0 156 -2t156 -6v24q-76 6 -119 22.5t-64.5 51.5t-27 91.5t-5.5 142.5v684q0 86 5.5 142t26 91t61.5 51.5t112 22.5v24 q-66 -4 -133 -6t-135 -2q-84 0 -167 2t-167 6v-24z" />
<glyph unicode="J" horiz-adv-x="1290" d="M55 279q0 -90 47.5 -151.5t115 -98.5t141 -53.5t124.5 -16.5q98 0 192.5 24.5t168.5 73.5t119 123t45 172v778q0 51 10 84t32.5 52.5t58.5 31t89 17.5v24q-86 -4 -168 -6t-168 -2q-76 0 -148.5 2t-148.5 6v-24q66 -6 115 -16.5t81 -34t47 -63.5t15 -107v-680 q0 -63 -9 -133t-42 -126.5t-94.5 -93t-163.5 -36.5q-39 0 -77 7t-69.5 26.5t-54 53t-30.5 87.5q20 23 27 61.5t7 67.5q0 37 -37.5 70.5t-86.5 33.5q-72 0 -105 -49t-33 -104z" />
<glyph unicode="K" horiz-adv-x="1517" d="M70 1315q74 -6 116.5 -22.5t64 -51.5t27 -91t5.5 -142v-684q0 -86 -5.5 -142.5t-27 -91.5t-62.5 -51t-114 -23v-24q74 4 147.5 6t149.5 2q78 0 155.5 -2t155.5 -6v24q-76 6 -119 22.5t-64.5 51.5t-26.5 91.5t-5 142.5v272l197 154l309 -455q41 -59 63.5 -92t22.5 -62 q0 -68 -54.5 -94.5t-127.5 -30.5v-24q80 4 158.5 6t158.5 2q88 0 176 -2t176 -6v24q-53 4 -100 24.5t-89 53.5t-78 75t-67 85l-413 608l254 217q72 61 126 103.5t102 70t94 42t100 20.5v24q-82 -4 -163 -6t-163 -2q-78 0 -152.5 2t-152.5 6v-24q27 0 53.5 -6t48 -19.5 t34.5 -35t13 -52.5q0 -29 -17.5 -63.5t-47 -73.5t-68.5 -77t-82 -73l-311 -253v346q0 86 5 142t25.5 91t61.5 51.5t113 22.5v24q-66 -4 -133.5 -6t-135.5 -2q-84 0 -166.5 2t-166.5 6v-24z" />
<glyph unicode="L" horiz-adv-x="1327" d="M76 -8q51 4 102 6t103 2h602q74 0 148.5 -2t148.5 -6l157 459h-30q-61 -100 -121 -175t-132.5 -124.5t-162.5 -74t-211 -24.5q-53 0 -105.5 8.5t-107.5 18.5v983q0 61 6 103t31.5 71t81 46t153.5 32v24q-86 -4 -173 -6t-173 -2q-80 0 -158.5 2t-158.5 6v-24 q74 -6 114.5 -22.5t61 -51.5t26 -91t5.5 -142v-811q0 -39 -7.5 -71t-30 -53.5t-62.5 -35.5t-107 -21v-24z" />
<glyph unicode="M" horiz-adv-x="1972" d="M0 -8q63 4 125.5 6t126.5 2q86 0 168 -2t168 -6v24q-74 4 -120 20.5t-72.5 49.5t-36 82t-9.5 117q0 53 8.5 160.5t21.5 237.5t29.5 267t32.5 250h4q139 -293 265.5 -589t222.5 -611h4q47 154 105.5 303.5t120 294.5t125 289.5t120.5 292.5h4l141 -826q10 -53 12.5 -94 t2.5 -65q0 -51 -16.5 -84t-46 -51.5t-68.5 -27.5t-82 -16v-24q78 4 152.5 6t152.5 2q82 0 163 -2t163 -6v24q-68 8 -109 23.5t-64.5 39t-35 55.5t-21.5 71q-14 63 -31.5 147t-34 176.5t-31.5 185.5t-27.5 174t-19.5 145.5t-7 99.5q0 49 14 80.5t41 52t62.5 32t78.5 17.5v24 q-66 -4 -130 -6t-130 -2q-74 0 -147.5 2t-147.5 6v-24q33 -10 63.5 -26.5t53.5 -43.5q-78 -229 -172 -447t-199 -436l-288 709q-14 35 -25.5 67.5t-11.5 67.5q0 51 32.5 75t71.5 34v24q-63 -4 -125.5 -6t-126.5 -2q-88 0 -175 2t-175 6v-24q59 -10 118.5 -32.5t102.5 -57.5 l-98 -729q-10 -78 -20.5 -157t-22.5 -151q-6 -39 -30.5 -69.5t-58.5 -52t-76 -34t-85 -16.5v-24z" />
<glyph unicode="N" horiz-adv-x="1669" d="M33 -8q59 4 116.5 6t116.5 2q102 0 202.5 -2t203.5 -6v24q-94 10 -149.5 30t-83 76t-35 162.5t-7.5 286.5v359q0 53 1 104t3 105q92 -100 208 -228.5t241 -277t250 -315t237 -343.5h76v1086q0 61 11.5 105t37 74t69.5 48.5t107 26.5v24q-66 -4 -133 -6t-133 -2 q-72 0 -144.5 2t-144.5 6v-24q82 -6 132.5 -41t78 -100.5t36.5 -163t9 -228.5v-237q0 -61 -1 -122t-1 -122h-4q-41 57 -111.5 146.5t-154.5 191.5t-174 212t-169 206t-140.5 171t-87.5 111q-45 -4 -88 -6t-89 -2q-86 0 -150.5 2t-135.5 6v-24q82 -20 159.5 -51t143.5 -84 l-25 -940q-2 -70 -19.5 -111t-51 -62.5t-85 -30.5t-122.5 -20v-24z" />
<glyph unicode="O" horiz-adv-x="1705" d="M96 666q0 -166 60.5 -297t163 -222.5t240.5 -139.5t294 -48t294 48t240.5 139.5t163 222.5t60.5 297t-60.5 297t-163 222t-240.5 139t-294 48t-294 -48t-240.5 -139t-163 -222t-60.5 -297zM313 666q0 125 37 239.5t106.5 201.5t170 139t227.5 52t227.5 -52t170 -139 t106.5 -201.5t37 -239.5t-37 -240t-106.5 -202t-170 -139t-227.5 -52t-227.5 52t-170 139t-106.5 202t-37 240z" />
<glyph unicode="P" horiz-adv-x="1290" d="M76 -8q80 4 154.5 6t150.5 2q78 0 154.5 -2t154.5 -6v24q-74 6 -117 22.5t-64.5 51.5t-26.5 91.5t-5 142.5v307q61 -23 127 -30t127 -7q80 0 164 18.5t152.5 60.5t113.5 109.5t45 165.5q0 94 -44 169t-113.5 127t-151.5 80t-160 28q-98 0 -193 -10.5t-194 -10.5 q-68 0 -135.5 2t-134.5 6v-24q74 -6 117 -22.5t64.5 -51.5t26.5 -91t5 -142v-684q0 -86 -5 -142.5t-26.5 -91.5t-65.5 -51t-120 -23v-24zM477 705v559q47 20 97.5 25t87.5 5q74 0 136 -24.5t107 -69.5t70.5 -110.5t25.5 -145.5q0 -68 -25.5 -121t-68.5 -89t-100 -55.5 t-123 -19.5q-53 0 -105.5 9.5t-101.5 36.5z" />
<glyph unicode="Q" horiz-adv-x="1705" d="M96 666q0 -166 60.5 -297t163 -222.5t240.5 -139.5t294 -48t294 48t240.5 139.5t163 222.5t60.5 297t-60.5 297t-163 222t-240.5 139t-294 48t-294 -48t-240.5 -139t-163 -222t-60.5 -297zM211 -158l29 -32q43 23 90 39t96 16q115 0 215 -46t196.5 -101.5t197 -101.5 t212.5 -46q100 0 171 21.5t126 61.5t103.5 99.5t105.5 132.5l-35 33q-39 -49 -76.5 -87t-80.5 -64.5t-94.5 -40t-116.5 -13.5q-88 0 -189.5 33t-210 73t-222.5 73.5t-226 33.5q-84 0 -151.5 -19.5t-139.5 -64.5zM313 666q0 125 37 239.5t106.5 201.5t170 139t227.5 52 t227.5 -52t170 -139t106.5 -201.5t37 -239.5t-37 -240t-106.5 -202t-170 -139t-227.5 -52t-227.5 52t-170 139t-106.5 202t-37 240z" />
<glyph unicode="R" horiz-adv-x="1478" d="M80 -8q74 4 147.5 6t149.5 2q78 0 155.5 -2t155.5 -6v24q-76 6 -119 22.5t-64.5 51.5t-26.5 91.5t-5 142.5v319q20 -6 52 -13t66 -13.5t65.5 -9.5t52.5 -3q84 -166 195.5 -315.5t238.5 -288.5h368v25q-98 10 -192 77.5t-175 158.5t-147.5 189.5t-109.5 172.5 q66 12 123 38.5t100 67.5t68.5 97.5t25.5 125.5q0 104 -47 180t-120.5 125.5t-165 72t-181.5 22.5q-39 0 -88 -3t-97 -7.5t-91 -7.5t-72 -3q-66 0 -131.5 2t-130.5 6v-24q74 -6 115 -22.5t62.5 -51.5t26.5 -91t5 -142v-684q0 -86 -5 -142.5t-26.5 -91.5t-62.5 -51t-115 -23 v-24zM473 713v139q0 117 2 217t6 199q47 14 96.5 18t100.5 4q66 0 123 -21.5t102 -61.5t70.5 -94t25.5 -122q0 -166 -88 -239.5t-247 -73.5q-47 0 -96.5 9t-94.5 26z" />
<glyph unicode="S" horiz-adv-x="1214" d="M88 453q27 -115 51.5 -227.5t42.5 -229.5q23 8 43.5 15t42.5 7q25 0 67 -9t93 -20.5t106.5 -20.5t106.5 -9q94 0 177 22.5t145.5 69.5t99.5 120t37 173q0 125 -59.5 206t-147.5 136t-191.5 95t-191.5 84t-147.5 100.5t-59.5 144.5q0 111 75 154t191 43q78 0 146.5 -31 t124 -81t97.5 -114.5t69 -130.5h28q-10 88 -13 176t-3 179q-66 0 -123 11t-117 23q-57 12 -117.5 22.5t-136.5 10.5t-145.5 -24.5t-121.5 -70.5t-83 -111.5t-31 -145.5q0 -106 59.5 -176t147.5 -121t191.5 -92t191.5 -89t147.5 -111.5t59.5 -162.5q0 -68 -24.5 -113.5 t-66.5 -74.5t-97.5 -42t-114.5 -13q-92 0 -171 43t-144.5 107.5t-117.5 143t-89 148.5z" />
<glyph unicode="T" horiz-adv-x="1327" d="M63 938l27 -8q39 121 78 190.5t93 103t128 42t180 8.5v-950q0 -86 -5 -142.5t-26.5 -91.5t-62.5 -51t-115 -23v-24q74 4 148 6t149 2q78 0 156 -2t156 -6v24q-76 6 -119 22.5t-64.5 51.5t-26.5 91.5t-5 142.5v950q109 0 184.5 -8.5t128.5 -42t93 -103t79 -190.5l27 8 l-29 401q-82 -4 -162 -6t-162 -2h-481q-86 0 -170 2t-170 6z" />
<glyph unicode="U" horiz-adv-x="1630" d="M86 1315q43 -8 76 -16.5t55.5 -27t33.5 -50t11 -88.5v-727q0 -111 45 -195t120 -140.5t171 -84t201 -27.5q115 0 216 28.5t177 88t120 148.5t44 212v613q0 86 13 136t38 76.5t60.5 37t78.5 16.5v24q-53 -4 -104 -6t-105 -2q-63 0 -125.5 2t-126.5 6v-24 q61 -8 100.5 -26.5t61 -54.5t28.5 -92.5t7 -137.5v-574q0 -49 -18.5 -113.5t-67.5 -121t-133 -95.5t-215 -39q-82 0 -154.5 19.5t-128 61.5t-87.5 109.5t-32 162.5v667q0 61 10.5 103.5t35 70t67.5 41t109 19.5v24q-61 -4 -122 -6t-122 -2q-86 0 -169 2t-169 6v-24z" />
<glyph unicode="V" horiz-adv-x="1441" d="M-27 1315q96 -8 150.5 -66.5t91.5 -146.5l477 -1122h45l426 956q25 55 50.5 118.5t60.5 119t84 94.5t121 47v24q-55 -4 -110.5 -6t-113.5 -2q-68 0 -136 2t-138 6v-24q31 -4 60.5 -11.5t54 -20.5t39 -34.5t14.5 -56.5q0 -43 -25.5 -129t-76.5 -209l-267 -629l-321 779 q-59 143 -60 184q0 39 18.5 61.5t47.5 35.5t61.5 19.5t61.5 10.5v24q-82 -4 -165 -6t-167 -2q-72 0 -141.5 2t-141.5 6v-24z" />
<glyph unicode="W" horiz-adv-x="2048" d="M-23 1315q35 -6 68 -12.5t64.5 -29t61.5 -66.5t60 -124l416 -1103h37l342 813l299 -813h35l467 1089q16 39 36.5 79t49.5 74.5t70.5 60.5t103.5 32v24q-59 -4 -118.5 -6t-119.5 -2q-66 0 -132 2t-134 6v-24q25 -2 56.5 -9.5t60.5 -20.5t48 -34.5t19 -52.5q0 -12 -3 -31.5 t-9 -42t-13 -46t-16 -44.5l-311 -784l-305 809q-20 53 -29.5 84t-9.5 49q0 35 20.5 57.5t50 36.5t63.5 20.5t61 8.5v24q-86 -4 -171 -6t-171 -2q-68 0 -135.5 2t-135.5 6v-24q168 -10 232 -170l106 -266l-254 -629l-284 751q-23 57 -39.5 99.5t-16.5 70.5q0 43 17.5 70 t45 42t62.5 21.5t70 10.5v24q-80 -4 -160 -6t-162 -2q-72 0 -145.5 2t-147.5 6v-24z" />
<glyph unicode="X" horiz-adv-x="1517" d="M4 -8q57 4 112.5 6t112.5 2q92 0 184.5 -2t184.5 -6v24q-31 4 -66.5 8.5t-67.5 16.5t-53.5 35.5t-21.5 64.5q0 25 30 79t77 116l217 291l225 -303q45 -61 74.5 -109.5t29.5 -64.5q0 -43 -17 -67t-45 -36t-60.5 -18t-65.5 -13v-24q82 4 162 6t162 2q92 0 181 -2t181 -6v24 q-63 4 -119.5 35t-103.5 72t-85 87t-65 83l-336 450l207 263q43 55 82 105t84 92t100.5 71t131.5 41v24q-66 -4 -132.5 -6t-132.5 -2q-57 0 -113.5 2t-113.5 6v-24q16 0 39 -5t42 -14.5t33.5 -26t14.5 -38.5q0 -43 -23.5 -89t-62.5 -100l-188 -256l-205 281q-39 53 -58.5 87 t-19.5 56q0 27 12.5 45.5t32 31.5t43 19.5t45.5 8.5v24q-78 -4 -156.5 -6t-156.5 -2q-74 0 -148.5 2t-148.5 6v-24q100 -16 178 -70.5t156 -163.5l305 -413l-365 -451q-33 -41 -63.5 -76t-65 -61.5t-78 -43t-102.5 -20.5v-24z" />
<glyph unicode="Y" horiz-adv-x="1478" d="M-41 1315q66 -14 115 -42t87 -61.5t68.5 -71.5t59.5 -75l370 -475v-322q0 -74 -11 -121t-38.5 -74.5t-74 -38.5t-113.5 -18v-24q76 4 151.5 6t151.5 2q92 0 182 -2t183 -6v24q-70 6 -118 17.5t-76 39t-40 75t-12 120.5v301l280 410q31 43 67 95t82 101.5t103.5 87 t130.5 52.5v24q-66 -4 -130 -6t-130 -2q-72 0 -144.5 2t-144.5 6v-24q61 -4 110.5 -40t49.5 -95q0 -35 -12 -75t-41 -83l-242 -379l-291 393q-41 53 -62 91t-21 61q0 33 16 54.5t41.5 36.5t55.5 23.5t54 12.5v24q-80 -4 -160.5 -6t-160.5 -2q-86 0 -168 2t-168 6v-24z" />
<glyph unicode="Z" horiz-adv-x="1441" d="M88 16l16 -24q94 4 187.5 6t187.5 2q180 0 359.5 -2t359.5 -6l156 459h-41q-43 -121 -118 -199t-170 -122t-206.5 -60.5t-232.5 -16.5q-90 0 -144.5 2t-85.5 11q98 131 217 285.5t249 318.5t264.5 329.5t263.5 315.5l-15 24q-139 -4 -275 -6t-276 -2q-51 0 -115.5 1 t-133 2t-138 2t-135.5 3q-22 -126 -22 -249v-11q0 -35 -4 -71q-2 -20 -1 -40q0 -17 1 -34h28q18 102 71.5 168.5t129.5 105.5t166 54.5t180 15.5h274z" />
<glyph unicode="[" horiz-adv-x="796" d="M213 -377h537v70h-365v1610h365v69h-537v-1749z" />
<glyph unicode="\" horiz-adv-x="569" d="M-123 1372l713 -1413h102l-712 1413h-103z" />
<glyph unicode="]" horiz-adv-x="796" d="M14 -307v-70h537v1749h-537v-69h365v-1610h-365z" />
<glyph unicode="^" d="M88 584h113l311 616l311 -616h113l-377 747h-94z" />
<glyph unicode="_" d="M0 -154v-102h1024v102h-1024z" />
<glyph unicode="`" horiz-adv-x="530" d="M-16 1174q0 -23 17 -48.5t42 -42.5l287 -196h90l-238 266q-35 39 -60.5 62.5t-53.5 23.5q-84 0 -84 -65z" />
<glyph unicode="a" horiz-adv-x="948" d="M29 170q0 -45 18.5 -83t49 -64.5t70.5 -41t83 -14.5q78 0 160 37t147 82q14 -14 32.5 -34.5t40 -39t44 -32t43.5 -13.5q31 0 63.5 17.5t62 43t57.5 53.5l48 48l-20 23q-29 -23 -60.5 -46.5t-72.5 -23.5q-43 0 -63.5 29.5t-20.5 68.5v379q0 63 -26 107.5t-66.5 71 t-94 37.5t-106.5 11q-55 0 -104.5 -5t-89.5 -24.5t-68.5 -57t-44.5 -101.5l168 -31q0 68 30.5 121t83.5 53q72 0 119 -41t47 -116v-156q-96 -2 -191.5 -10t-170 -36t-121.5 -78t-47 -134zM201 199q0 45 19.5 76.5t50 52t69.5 30t78 9.5q70 0 137 -19v-207q-25 -18 -79 -44.5 t-120 -26.5q-59 0 -107 29.5t-48 99.5z" />
<glyph unicode="b" horiz-adv-x="1099" d="M-2 1395q78 0 117 -27t39 -98v-1174q12 -12 50 -33.5t93 -43t120.5 -37t133.5 -15.5q92 0 174 28t141.5 83t94 137t34.5 188q0 84 -31.5 155t-88 121t-133 78.5t-167.5 28.5q-80 0 -146.5 -24.5t-121.5 -65.5q4 193 5 381.5t5 380.5l-319 -39v-24zM295 377 q2 100 18.5 166.5t48 106.5t79.5 56.5t114 18.5q59 0 107.5 -26.5t82 -72.5t52 -109.5t18.5 -139.5t-18.5 -139.5t-52 -109.5t-82 -72.5t-107.5 -26.5q-66 2 -114 19.5t-79.5 57t-48 105t-18.5 166.5z" />
<glyph unicode="c" horiz-adv-x="909" d="M51 377q0 -84 33 -159t87 -130t127 -88t153 -33q111 0 199.5 38t180.5 114l-28 33q-61 -43 -129 -71t-144 -28q-72 0 -130 28t-99 76t-63.5 109.5t-22.5 128.5q0 59 13.5 119.5t41 109t72.5 79t109 30.5q66 0 112.5 -26.5t81.5 -67.5t61.5 -93t47.5 -104h24l-26 312 q-72 14 -143.5 23t-157.5 9q-80 0 -153 -32.5t-127 -88t-87 -130t-33 -158.5z" />
<glyph unicode="d" horiz-adv-x="1099" d="M41 360q0 -78 26.5 -149.5t74.5 -125.5t117 -86t153 -32q98 0 183 30t132 71v-76q84 4 166 6t164 2v25q-55 0 -89 8t-52.5 29.5t-24.5 56.5t-6 88v1251l-334 -33v-24q53 -4 86 -12.5t53.5 -27t27.5 -49t7 -79.5v-531q-57 35 -120.5 59.5t-131.5 24.5q-92 0 -171 -31.5 t-137.5 -89t-91 -135t-32.5 -170.5zM213 381q0 61 14.5 123.5t45 113t78.5 81t118 30.5q47 0 90 -15.5t78 -39t58.5 -52t29.5 -57.5v-393q-6 -18 -29.5 -43t-58.5 -46.5t-78 -35.5t-90 -14q-70 0 -118 30.5t-78.5 81t-45 112.5t-14.5 124z" />
<glyph unicode="e" horiz-adv-x="909" d="M49 377q0 -78 25.5 -151.5t75 -131t119 -92.5t157.5 -35q123 0 211 47t172 138l-35 32q-59 -59 -129 -86.5t-156 -27.5q-41 0 -89 16t-90 57t-69.5 111t-27.5 176h594q-23 178 -121 267t-260 89q-88 0 -157.5 -34.5t-119 -92t-75 -131t-25.5 -151.5zM217 492 q0 41 13.5 81.5t39 74.5t61.5 55.5t79 21.5q57 0 94 -15.5t59.5 -45t32.5 -73.5t16 -99h-395z" />
<glyph unicode="f" horiz-adv-x="645" d="M14 -8q66 4 129.5 6t128.5 2q72 0 141.5 -2t141.5 -6v24q-84 2 -130 16.5t-68.5 41t-27.5 63.5t-5 84v461h260v61h-260v392q0 35 7 84t27.5 93t54 74.5t85.5 30.5q37 0 62.5 -14t40.5 -35.5t21.5 -43t6.5 -38.5q0 -66 12 -84t43 -18q47 0 63.5 18.5t16.5 67.5 q0 86 -68.5 137t-167.5 51q-100 0 -169.5 -51t-112.5 -127t-62.5 -162t-19.5 -155v-220h-88l-13 -61h101v-461q0 -47 -3 -84t-18.5 -63.5t-45 -41t-83.5 -16.5v-24z" />
<glyph unicode="g" d="M12 -236q0 -78 36 -131t91.5 -84.5t123 -46t130.5 -14.5q82 0 166 19.5t152.5 61.5t112.5 108.5t44 162.5q0 80 -23.5 131.5t-64.5 80t-99 39.5t-130 11q-27 0 -60.5 -2t-66.5 -4t-62.5 -4t-50.5 -2q-90 0 -124.5 16.5t-34.5 63.5t31.5 74.5t66.5 48.5q86 -49 188 -49 q78 0 136.5 20.5t97.5 56t59.5 83t20.5 102.5q0 47 -9.5 86t-25.5 82q12 6 34.5 16t39.5 10q29 0 49 -11t20 -34q0 -16 -2 -33.5t-6 -33.5l111 39q4 10 4 32v50q0 20 -27 44.5t-63 24.5q-53 0 -101.5 -22.5t-95.5 -44.5q-57 45 -122.5 60t-137.5 15q-66 0 -120 -20.5 t-93 -57t-60.5 -87t-21.5 -109.5t19.5 -108.5t60.5 -77.5q-72 -31 -116 -87.5t-44 -138.5q0 -41 14.5 -74.5t46.5 -58.5q-43 -41 -68.5 -92t-25.5 -111zM119 -180q0 35 7 70.5t24 62.5q29 0 62.5 1t78.5 2t101.5 2t131.5 1q135 0 205 -34t70 -122q0 -59 -39 -96t-93.5 -57.5 t-114.5 -27.5t-103 -7q-47 0 -104.5 10t-108 34t-84 62.5t-33.5 98.5zM276 516q0 43 10.5 82t30 68.5t50 48t71.5 18.5t72 -18.5t51.5 -48t29.5 -68.5t9 -82t-9 -82t-29.5 -69.5t-51.5 -49t-72 -18.5t-71.5 18.5t-50 49t-30 69.5t-10.5 82z" />
<glyph unicode="h" horiz-adv-x="1099" d="M14 1399q45 -2 75 -8.5t47.5 -28t24.5 -63.5t7 -115v-1045q0 -68 -37 -89t-106 -34v-24q47 4 91 6t91 2q70 0 138.5 -2t137.5 -6v24q-78 12 -116.5 34t-38.5 89v434q0 18 20.5 39t51 38.5t67.5 27.5t72 10q96 0 141 -57.5t45 -161.5v-330q0 -68 -36 -89t-101 -34v-24 q41 4 85 6t91 2q70 0 137.5 -2t126.5 -6v24q-70 12 -106.5 34t-36.5 89v361q0 82 -24.5 137t-65.5 88t-93.5 47t-109.5 14q-66 0 -137.5 -38.5t-126.5 -81.5v792l-314 -35v-24z" />
<glyph unicode="i" horiz-adv-x="530" d="M14 -8q47 4 92.5 6t92.5 2q72 0 144.5 -2t143.5 -6v24q-45 2 -75.5 7.5t-50 21.5t-27.5 47t-8 80v602l-312 -20v-29q53 -6 84 -22.5t46.5 -42t18.5 -63.5t3 -87v-338q0 -49 -8 -80t-26.5 -47t-47.5 -21.5t-70 -7.5v-24zM117 1264q0 -45 31.5 -79t76.5 -34t77 34t32 79 t-32 78.5t-77 33.5t-76.5 -33.5t-31.5 -78.5z" />
<glyph unicode="j" horiz-adv-x="530" d="M-92 -483l24 -29q76 55 150 116.5t131 132t92 152.5t35 181v704l-311 -20v-29q86 0 118.5 -50t32.5 -147v-401q0 -109 -11 -190.5t-42 -150.5t-84 -133.5t-135 -135.5zM131 1268q0 -45 32 -79t77 -34t76.5 34t31.5 79t-31.5 78.5t-76.5 33.5t-77 -33.5t-32 -78.5z" />
<glyph unicode="k" horiz-adv-x="1099" d="M4 1397q41 -2 69.5 -10.5t47 -30t28 -59t9.5 -97.5v-950q0 -61 -3 -103.5t-16.5 -69t-43 -40.5t-85.5 -21v-24q47 4 91 6t92 2q68 0 134 -2t134 -6v24q-86 10 -115 38t-29 93v152l132 98q16 -25 51 -65.5t68.5 -85.5t59 -87t25.5 -69q-1 -44 -37 -60q-33 -15 -63 -14h-8 v-24q66 4 129 6t129 2q63 0 125.5 -2t124.5 -6v24q-80 10 -151 64.5t-132 126.5t-114.5 147.5t-100.5 130.5q45 37 91 76t95.5 73t102.5 59.5t114 35.5v25h-399v-25q31 -4 46.5 -17.5t15.5 -45.5q0 -33 -39 -78t-90.5 -89t-101.5 -82t-73 -59v1100l-313 -37v-24z" />
<glyph unicode="l" horiz-adv-x="530" d="M-2 -8q57 4 113.5 6t115.5 2q61 0 124 -2t122 -6v24q-55 4 -87 15.5t-49.5 34t-21.5 61.5t-4 98v1233l-301 -37v-24q92 0 117 -32t25 -112v-1028q0 -59 -4.5 -98t-20.5 -61.5t-46 -34t-83 -15.5v-24z" />
<glyph unicode="m" horiz-adv-x="1593" d="M14 -8q51 4 96.5 6t92.5 2q70 0 136.5 -2t125.5 -6v24q-68 12 -104.5 34t-36.5 89v455q31 29 54 48.5t45.5 31.5t46.5 17t54 5q104 0 135 -56t31 -157v-344q0 -68 -36 -89t-95 -34v-24q37 4 80 6t90 2q70 0 136.5 -2t125.5 -6v24q-68 12 -104.5 34t-36.5 89v479 q74 66 201 66q66 0 116 -50t50 -151v-344q0 -68 -36 -89t-96 -34v-24q37 4 80 6t90 2q70 0 137.5 -2t133.5 -6v24q-74 12 -112 34t-38 89v365q0 141 -74.5 211.5t-201.5 70.5q-35 0 -72 -11t-71.5 -27.5t-67.5 -36t-60 -37.5q-45 55 -99 83.5t-126 28.5q-84 0 -149.5 -33.5 t-130.5 -80.5v102l-299 -41v-24q39 -2 65.5 -7.5t43 -21.5t23.5 -45t7 -78v-418q0 -68 -38 -89t-112 -34v-24z" />
<glyph unicode="n" horiz-adv-x="1099" d="M25 -8q47 4 91 6t91 2q70 0 138.5 -2t137.5 -6v24q-78 12 -116.5 34t-38.5 89v434q0 18 20.5 39t51 38.5t67.5 27.5t72 10q96 0 141 -57.5t45 -161.5v-330q0 -68 -36 -89t-101 -34v-24q41 4 85 6t91 2q70 0 137.5 -2t126.5 -6v24q-70 12 -106.5 34t-36.5 89v361 q0 82 -24.5 137t-65.5 88t-93.5 47t-109.5 14q-66 0 -137.5 -38.5t-126.5 -81.5v108l-299 -45v-24q55 0 97 -14.5t42 -76.5v-475q0 -68 -37 -89t-106 -34v-24z" />
<glyph unicode="o" d="M49 377q0 -92 32 -168t90 -129t139 -83t179 -30t179.5 30t139.5 83t90 129t32 168t-32 168t-90 129t-139.5 82.5t-179.5 29.5t-179 -29.5t-139 -82.5t-90 -129t-32 -168zM229 401q0 59 13.5 116.5t41 104t70 75t99.5 28.5q76 0 131 -34t92 -88t55.5 -119.5t18.5 -131.5 q0 -57 -13.5 -115.5t-41 -104.5t-69.5 -74.5t-100 -28.5q-76 0 -132 33.5t-93 88t-54.5 121t-17.5 129.5z" />
<glyph unicode="p" horiz-adv-x="1099" d="M-16 -475v-25q70 4 138 6t138 2q76 0 151.5 -2t151.5 -6v25q-88 2 -138 10t-75.5 26.5t-32 49.5t-6.5 80v342q55 -35 116.5 -50.5t125.5 -15.5q90 0 170 29t140.5 81t96 127t35.5 169q0 90 -26.5 165.5t-77.5 131t-124 86t-163 30.5t-154.5 -22.5t-138.5 -75.5v86 l-313 -31v-22q43 -4 71.5 -12.5t47 -24.5t27 -44t8.5 -71v-893q0 -47 -10.5 -74.5t-32 -43t-52 -22.5t-73.5 -11zM311 182v406q23 55 93.5 90t160.5 35q63 0 110.5 -31t78 -80t46 -110.5t15.5 -122.5q0 -147 -61.5 -243.5t-188.5 -96.5q-90 0 -160.5 46t-93.5 107z" />
<glyph unicode="q" horiz-adv-x="1099" d="M41 375q0 -82 29.5 -156t86 -130t138.5 -89t184 -33q66 0 135.5 22.5t122.5 57.5v-391q0 -41 -9 -65.5t-36.5 -38t-76 -19.5t-128.5 -8v-25q82 4 163 6t163 2q66 0 131.5 -2t130.5 -6v25q-47 4 -80.5 11t-55 23.5t-32 44t-10.5 70.5v899q0 59 6 101.5t43 91.5h-178 l-25 -45q-123 65 -260 65h-4q-86 0 -164.5 -27.5t-140 -79.5t-97.5 -129t-36 -175zM221 428q0 51 12.5 105.5t40 98.5t71.5 72.5t110 28.5q57 0 106 -19.5t87 -49t60.5 -67.5t28.5 -75v-397q-55 -84 -205 -84q-145 0 -228 105.5t-83 281.5z" />
<glyph unicode="r" horiz-adv-x="796" d="M18 -8q47 4 91.5 6t91.5 2q70 0 138.5 -2t137.5 -6v24q-78 12 -116.5 34t-38.5 89v434q18 18 41.5 43t50 46.5t55.5 36t57 14.5q35 0 55.5 -25.5t20.5 -54.5q0 -25 -4 -40l-8 -30l164 86q-4 78 -44 122t-120 44q-35 0 -72 -18.5t-72.5 -44t-67.5 -52t-56 -43.5v117 l-299 -45v-24q55 0 97 -14.5t42 -76.5v-475q0 -68 -37 -89t-107 -34v-24z" />
<glyph unicode="s" horiz-adv-x="796" d="M59 260l17 -237q53 -6 136 -31t179 -25q61 0 115.5 11.5t95.5 38t64.5 73.5t23.5 117q0 68 -38 114t-93 77.5t-121.5 54t-122 46t-93.5 51.5t-38 71q0 59 41 81.5t92 22.5q47 0 89.5 -17.5t80 -45t68.5 -63.5t51 -75h27l-12 217q-78 4 -151 24.5t-151 20.5 q-104 0 -172.5 -59t-68.5 -170q0 -68 38 -111t93 -72.5t121.5 -51t122 -46t93.5 -57.5t38 -84q0 -31 -14.5 -51.5t-37 -32.5t-50 -17t-54.5 -5q-55 0 -104.5 20.5t-92.5 53t-78.5 73.5t-64.5 84h-29z" />
<glyph unicode="t" horiz-adv-x="645" d="M-10 690h164v-547q0 -72 30.5 -124t116.5 -52q49 0 91 15.5t78 41t69.5 57.5t66.5 62l-18 21q-41 -41 -82 -67.5t-103 -26.5q-31 0 -48 12t-26.5 32.5t-12.5 46t-3 52.5v477h281v62h-281v297h-28q-18 -53 -42 -110.5t-58.5 -105t-82 -78t-112.5 -32.5v-33z" />
<glyph unicode="u" horiz-adv-x="1099" d="M6 733q84 -10 119 -32.5t35 -84.5v-423q0 -115 69.5 -170.5t167.5 -55.5q92 0 171 39t151 92v-106q76 4 154.5 6t156.5 6v21q-72 4 -111.5 29.5t-39.5 103.5v628l-322 -22v-23q55 -8 88 -21t49.5 -30.5t20.5 -40t4 -49.5v-432q-31 -35 -95.5 -66.5t-129.5 -31.5 q-84 0 -129.5 48t-45.5 132v536l-313 -26v-27z" />
<glyph unicode="v" d="M-37 737q70 -10 117 -57t74 -107q61 -141 138 -295.5t142 -302.5h74q59 141 132 270.5t142 264.5q35 66 65 109t57.5 68.5t53 36.5t52.5 13v25q-45 -4 -89 -6t-90 -2q-43 0 -100 2t-96 6v-25q49 -6 83 -24.5t34 -77.5q0 -33 -28 -98.5t-65.5 -139t-76.5 -143.5t-60 -107 q-14 29 -49 95.5t-70.5 142.5t-63.5 146.5t-28 105.5q0 49 41 71.5t84 28.5v25q-47 -2 -67.5 -4t-38.5 -2h-45t-92 -2q-47 2 -66 2h-33q-14 0 -39.5 2t-91.5 4v-25z" />
<glyph unicode="w" horiz-adv-x="1517" d="M-55 737q63 -12 116.5 -65.5t88.5 -124.5q29 -59 62.5 -130t68 -145.5t68.5 -149.5t63 -147h51l264 539l248 -539h45l221 455q23 47 46.5 98.5t53 95.5t66.5 75.5t86 37.5v25q-45 -4 -90 -6t-90 -2q-47 0 -92 2t-93 6v-25q59 -8 86 -33.5t27 -87.5q0 -29 -24.5 -92 t-57.5 -135t-66.5 -137.5t-50.5 -95.5q-12 33 -43.5 100.5t-65.5 140t-59.5 138t-25.5 92.5q0 53 38 80.5t91 29.5v25q-63 -4 -127 -6t-129 -2q-41 0 -70.5 1t-52.5 2t-42 2t-40 3v-25q72 -8 116 -61t62 -107l-207 -405q-14 39 -46.5 102.5t-65.5 133t-57.5 132t-24.5 99.5 q0 47 36 74.5t79 29.5v27q-55 -4 -110.5 -6t-111.5 -2q-35 0 -62.5 1t-54 2t-56 2t-68.5 3v-25z" />
<glyph unicode="x" horiz-adv-x="1062" d="M-27 -8q51 4 101.5 6t101.5 2q49 0 97.5 -2t97.5 -6v24q-14 0 -34 3.5t-35 10.5t-26.5 20t-11.5 32q0 31 23.5 67.5t56.5 72.5t66.5 68t54.5 50q16 -25 41.5 -56.5t50.5 -65.5t42 -67.5t17 -62.5q0 -18 -12 -31.5t-30.5 -22.5t-39 -13.5t-36.5 -4.5v-24q68 4 135 6t135 2 q66 0 130.5 -2t129.5 -6v24q-82 12 -149.5 59.5t-123 108t-101.5 125t-85 111.5q51 43 100.5 92t100.5 95t108.5 82t127.5 48v25q-47 -6 -96.5 -7t-96.5 -1q-53 0 -107.5 1t-107.5 7v-27q27 -8 54.5 -24.5t27.5 -46.5q0 -31 -15.5 -58.5t-37 -52.5t-46 -47.5t-44.5 -42.5 q-14 12 -37 39.5t-44.5 59.5t-37 61.5t-15.5 46.5q0 29 31 45t53 20v27q-57 -6 -113.5 -7t-113.5 -1q-66 0 -131.5 1t-130.5 7v-25q78 -10 137.5 -48t109.5 -90t95 -110.5t92 -109.5q-55 -47 -106.5 -101.5t-105.5 -105.5t-114.5 -93t-132.5 -63v-24z" />
<glyph unicode="y" d="M-162 -338q0 -45 17.5 -78t45 -54.5t63.5 -31.5t73 -10q66 0 125 18.5t129.5 94t162 229.5t220.5 424q18 37 53 113.5t81 156.5t101.5 142.5t110.5 70.5v25q-47 -6 -92 -7t-92 -1q-49 0 -96.5 1t-94.5 7v-25q23 -6 44.5 -11t37.5 -14.5t27.5 -23.5t11.5 -39 q0 -14 -15.5 -57t-38 -100.5t-51 -124t-55 -126t-49 -106.5t-33.5 -67q-23 70 -60.5 151.5t-73.5 160.5t-62.5 147.5t-26.5 109.5q0 27 11.5 44t29.5 28.5t41 18.5t45 9v25q-61 -6 -124.5 -7t-125.5 -1q-63 0 -115.5 1t-113.5 7v-25q49 -12 76.5 -22t47 -28.5t35 -46.5 t35.5 -75q23 -45 52.5 -109.5t61.5 -134t62.5 -138t54 -124t39 -92.5t15.5 -43q0 -16 -28.5 -74.5t-74.5 -123t-105.5 -114.5t-121.5 -50q-29 0 -58.5 3t-29.5 15q0 10 16.5 34t16.5 58q0 49 -28.5 73t-75.5 24q-41 0 -71 -33t-30 -74z" />
<glyph unicode="z" horiz-adv-x="909" d="M33 29l18 -37q86 4 169 6t169 2q92 0 184.5 -2t184.5 -6l45 264l-31 10q-25 -74 -64.5 -115.5t-90 -63t-113 -28t-133.5 -6.5h-131l557 676l-23 33q-84 -4 -167 -6t-167 -2q-86 0 -168 2t-168 6l-28 -244l28 -8q53 111 135.5 150.5t200.5 39.5h146z" />
<glyph unicode="{" horiz-adv-x="796" d="M211 500q76 -29 100.5 -83.5t24.5 -156.5v-375q0 -94 22.5 -152.5t61.5 -90t89 -42t107 -10.5v25q-109 45 -108 258v354q0 55 -5 99.5t-21.5 78t-45 56t-76.5 37.5v4q47 14 76 36.5t45.5 56.5t21.5 78t5 99v354q0 213 108 258v25q-57 0 -107 -10t-89 -42t-61.5 -90.5 t-22.5 -152.5v-375q0 -102 -24.5 -156.5t-100.5 -82.5z" />
<glyph unicode="|" horiz-adv-x="454" d="M176 0h103v1458h-103v-1458z" />
<glyph unicode="}" horiz-adv-x="792" d="M145 -385v-25q57 0 108.5 10.5t89.5 42t60.5 90t22.5 152.5v375q0 102 24.5 156.5t100.5 83.5q-76 29 -100.5 83t-24.5 156v375q0 94 -22.5 152.5t-60.5 90.5t-89 42t-109 10v-25q109 -45 109 -258v-354q0 -55 5 -99t21.5 -78t45 -56.5t75.5 -36.5v-4q-47 -14 -75.5 -37 t-45 -56.5t-21.5 -77.5t-5 -100v-354q0 -213 -109 -258z" />
<glyph unicode="~" d="M39 322l74 -74q12 27 27.5 53.5t37 47t48 33.5t59.5 13q72 0 129 -21.5t106 -49.5q51 -29 101.5 -48.5t107.5 -19.5q47 0 85 15.5t67.5 40t55.5 56t48 64.5l-74 74q-18 -27 -36.5 -53.5t-40 -47t-47 -34t-56.5 -13.5q-41 0 -96 25t-113 49q-59 27 -116.5 46.5 t-110.5 19.5q-51 0 -91 -15.5t-71 -40t-54.5 -56.5t-39.5 -64z" />
<glyph unicode="&#xa1;" horiz-adv-x="796" d="M281 758q0 -49 33.5 -82t80.5 -33t81 33t34 82t-34 81.5t-81 32.5t-80.5 -32.5t-33.5 -81.5zM301 -344q0 -37 7 -74t11 -74l236 41v17q-27 20 -46.5 47t-30.5 62.5t-16 82.5t-5 111q0 47 6 96t6 96q0 104 -12.5 206t-32.5 206q-4 23 -7 41t-7 31h-27q0 -63 -2 -126 t-2 -126q0 -53 -12.5 -123t-26.5 -151.5t-26.5 -174t-12.5 -188.5z" />
<glyph unicode="&#xa2;" d="M102 383q0 -78 27 -147.5t76 -122t119.5 -83t158.5 -30.5v-238h58v238q94 6 180 45t158 96l-33 39q-63 -51 -142 -72.5t-163 -21.5v639q55 -6 96 -34.5t73.5 -68.5t55 -87.5t41.5 -92.5h22l-22 316q-20 -4 -55 -4q-14 0 -40 4t-55.5 8t-60.5 8t-55 4v221h-58v-221 q-80 -8 -149.5 -38.5t-120.5 -82t-81 -121t-30 -153.5zM262 422q0 53 13.5 104.5t41 93.5t68.5 70.5t98 34.5v-633q-55 16 -96 49t-68.5 77t-42 96.5t-14.5 107.5z" />
<glyph unicode="&#xa3;" d="M10 -8q106 4 211 6t211 2q92 0 180 -2t181 -6l131 266l-21 14q-39 -53 -67.5 -83.5t-60.5 -45t-72.5 -17.5t-106.5 -3h-358l-2 14q55 41 86.5 101.5t48 130t21.5 141.5t5 131h271v57h-273q-2 59 -4 121t-2 125q0 174 52.5 268.5t150.5 94.5q74 0 117 -43t43 -119 q0 -20 -7.5 -40t-7.5 -38q0 -31 66 -31q100 0 100 115q0 61 -27.5 102t-70.5 65.5t-96.5 35t-102.5 10.5q-82 0 -150.5 -45t-116.5 -115.5t-74.5 -155.5t-26.5 -167v-183h-134l-24 -57h158q2 -35 5 -64.5t3 -58.5q0 -147 -19.5 -238.5t-51.5 -142.5t-75 -72.5t-90 -31.5v-41 z" />
<glyph unicode="&#xa4;" d="M4 236l78 -78l108 118q72 -63 154 -90.5t172 -27.5q86 0 167 28.5t151 89.5l108 -118l78 78l-109 114q57 72 83 152t26 166t-25.5 168t-85.5 149l111 111l-78 78l-106 -105q-152 104 -318 105q-86 0 -170 -28t-151 -85l-115 113l-78 -78l115 -117q-63 -66 -89 -147.5 t-26 -167.5q0 -174 111 -312zM115 666q0 84 31.5 157.5t86 129t126 87t153.5 31.5t153.5 -31.5t126 -87t86 -129t31.5 -157.5t-31.5 -158t-86 -129t-126 -87t-153.5 -32t-153.5 32t-126 87t-86 129t-31.5 158z" />
<glyph unicode="&#xa5;" d="M-10 1315q43 -14 76.5 -42t59.5 -61.5t46.5 -71.5t38.5 -75l170 -322h-193v-57h224l51 -96v-84h-275v-57h275v-181q0 -74 -8.5 -121t-27.5 -74.5t-50 -38.5t-76 -18v-24q53 4 103.5 6t103.5 2q59 0 121.5 -2t124.5 -6v24q-49 6 -81 17.5t-50.5 39t-25.5 75t-7 120.5v181 h274v57h-274v63l51 117h223v57h-194l106 236q20 43 45 96t55.5 101.5t69.5 86t88 52.5v24q-45 -4 -88 -6t-86 -2q-49 0 -98 2t-100 6v-24q43 -4 75.5 -40t32.5 -95q0 -35 -8 -75t-27 -83l-162 -379l-196 393q-57 111 -58 152q0 33 11.5 54.5t29 36.5t37 23.5t37.5 12.5v24 q-53 -4 -108.5 -6t-110.5 -2q-57 0 -112.5 2t-112.5 6v-24z" />
<glyph unicode="&#xa6;" horiz-adv-x="454" d="M176 0h103v563h-103v-563zM176 895h103v563h-103v-563z" />
<glyph unicode="&#xa7;" d="M143 567q0 -82 40 -149.5t98.5 -124.5t128 -108.5t128 -99.5t98.5 -97t40 -103q0 -78 -47 -119.5t-125 -41.5q-12 0 -35 3t-44.5 10t-37.5 19.5t-16 32.5q0 12 8 23.5t17.5 24.5t16.5 29.5t7 41.5q0 35 -27.5 65.5t-81.5 30.5q-41 0 -70.5 -27.5t-29.5 -87.5 q0 -43 25.5 -81.5t67.5 -68.5t96.5 -47.5t109.5 -17.5q57 0 109.5 19.5t91.5 54.5t61.5 84t22.5 109q0 98 -57.5 168.5t-131.5 121.5v7q139 0 207 68.5t68 178.5q0 80 -40 148.5t-100.5 129t-130 114t-130 101.5t-100.5 93t-40 90t14.5 76t38 51.5t53 28.5t58.5 6 q66 0 104.5 -20.5t38.5 -34.5q0 -10 -11 -19.5t-25.5 -22t-26 -30.5t-11.5 -49q0 -35 25 -62.5t76 -27.5q45 0 76.5 25.5t31.5 72.5q0 49 -21.5 89t-57 68.5t-79.5 44t-92 15.5q-63 0 -119.5 -14.5t-99.5 -46t-67.5 -80.5t-24.5 -119q0 -47 17.5 -88t44 -78t61.5 -67.5 t68 -57.5v-4q-115 0 -192 -65.5t-77 -184.5zM254 627q0 57 35 99t96 42q53 0 119.5 -36t125 -89t99.5 -113.5t41 -111.5q0 -61 -41 -96t-100 -35q-49 0 -113.5 33.5t-123 85t-98.5 110.5t-40 111z" />
<glyph unicode="&#xa8;" horiz-adv-x="530" d="M-33 1024q0 -47 31 -78t78 -31t77.5 31t30.5 78t-30.5 78t-77.5 31t-78 -31t-31 -78zM346 1024q0 -47 31 -78t78 -31t77.5 31t30.5 78t-30.5 78t-77.5 31t-78 -31t-31 -78z" />
<glyph unicode="&#xa9;" horiz-adv-x="1638" d="M129 664q0 -147 53.5 -275.5t147.5 -223.5t220 -150.5t269 -55.5q145 0 271.5 55.5t219.5 150.5t146 223t53 276q0 147 -53 276t-146 225.5t-219 151.5t-272 55q-143 0 -269 -55t-220 -151.5t-147.5 -225.5t-53.5 -276zM240 664q0 123 46 235.5t123.5 198.5t184 137 t225.5 51q121 0 226.5 -50t184.5 -136t124 -199t45 -237q0 -123 -46 -235t-124 -198t-183.5 -136t-226.5 -50q-119 0 -224.5 50t-184 136t-124.5 198t-46 235zM432 684q0 -109 34 -185.5t92 -125.5t136 -73t166 -24q72 0 129.5 12.5t85.5 22.5q25 8 39 15.5t16 25.5l31 142 h-33q-14 -35 -35.5 -67t-52 -56.5t-69.5 -39t-90 -14.5q-78 0 -135.5 29t-94.5 78t-54 117.5t-17 148.5q0 76 18 139.5t54 109.5t90.5 71.5t125.5 25.5q59 0 101.5 -16t69 -42t40 -58.5t15.5 -65.5h36v143q0 29 -45 43q-41 14 -87 25.5t-124 11.5q-117 0 -200.5 -38 t-137 -96t-79 -126.5t-25.5 -132.5z" />
<glyph unicode="&#xaa;" horiz-adv-x="569" d="M-4 995q0 -55 45 -89t102 -34q51 0 105.5 23t95.5 49q18 -16 47 -44t58 -28q20 0 40.5 11.5t40 27t37 31.5t31.5 29l-14 12q-18 -14 -39 -27.5t-47 -13.5q-29 0 -40.5 18.5t-11.5 40.5v213q0 43 -17 73t-45 46.5t-61.5 23.5t-68.5 7q-37 0 -69.5 -3t-58.5 -14.5 t-46.5 -34t-32.5 -61.5l115 -18q-2 41 20.5 63.5t63.5 22.5t63.5 -15.5t22.5 -60.5v-94q-57 0 -116.5 -5t-109 -21.5t-80 -46t-30.5 -81.5zM123 1014q0 51 41 70.5t88 19.5q23 0 42 -1t38 -7v-113q-12 -10 -45 -25.5t-72 -15.5q-37 0 -64.5 16.5t-27.5 55.5z" />
<glyph unicode="&#xab;" horiz-adv-x="909" d="M111 373q0 -23 30 -47l291 -234l23 23l-211 268l192 258l-22 21l-267 -232q-37 -33 -36 -57zM391 373q0 -23 31 -47l291 -234l22 23l-211 268l193 258l-23 21l-266 -232q-37 -33 -37 -57z" />
<glyph unicode="&#xac;" d="M137 471h647v-309h103v411h-750v-102z" />
<glyph unicode="&#xad;" horiz-adv-x="681" d="M61 301q45 12 90.5 16.5t92.5 4.5q35 0 83 -8.5t97 -8.5q55 0 106 12l23 152q-33 -10 -64.5 -15t-66.5 -5q-57 0 -112.5 8t-112.5 8q-59 0 -121 -16z" />
<glyph unicode="&#xae;" horiz-adv-x="1638" d="M129 664q0 -147 53.5 -275.5t147.5 -223.5t220 -150.5t269 -55.5q145 0 271.5 55.5t219.5 150.5t146 223t53 276q0 147 -53 276t-146 225.5t-219 151.5t-272 55q-143 0 -269 -55t-220 -151.5t-147.5 -225.5t-53.5 -276zM240 664q0 123 46 235.5t123.5 198.5t184 137 t225.5 51q121 0 226.5 -50t184.5 -136t124 -199t45 -237q0 -123 -46 -235t-124 -198t-183.5 -136t-226.5 -50q-119 0 -224.5 50t-184 136t-124.5 198t-46 235zM489 299h332v33q-39 4 -59.5 7t-29.5 12t-10 28.5t-1 52.5v199h98q49 -72 85 -133.5t63.5 -105.5t51 -68.5 t48.5 -24.5h131v16q-29 23 -72 71t-84 103l-118 162q72 25 119 81t47 134q0 49 -20.5 84t-53.5 58.5t-76 35t-88 11.5h-363v-35q37 -2 57.5 -5t30 -12.5t11.5 -28t2 -52.5v-490q0 -33 -2 -52.5t-11.5 -28.5t-30 -12t-57.5 -7v-33zM721 672v342h84q59 0 102 -34t43 -124 q0 -82 -32.5 -133t-108.5 -51h-88z" />
<glyph unicode="&#xb0;" horiz-adv-x="819" d="M117 1071q0 -61 22.5 -114.5t62.5 -93.5t93.5 -62.5t114.5 -22.5t114.5 22.5t93 62.5t62 93.5t22.5 114.5t-22.5 114.5t-62 93.5t-93 62.5t-114.5 22.5t-114.5 -22.5t-93.5 -62.5t-62.5 -93t-22.5 -115zM219 1071q0 41 14.5 78t40 64.5t60.5 44t76 16.5t75.5 -16.5 t60 -44t40 -64.5t14.5 -78t-14.5 -78t-40 -64.5t-60 -44t-75.5 -16.5t-76 16.5t-60.5 44t-40 64.5t-14.5 78z" />
<glyph unicode="&#xb1;" d="M137 0h750v102h-750v-102zM137 424h324v-229h102v229h324v102h-324v228h-102v-228h-324v-102z" />
<glyph unicode="&#xb2;" horiz-adv-x="614" d="M12 559l15 -18q68 2 135 3t133 1q51 0 101 -1t102 -3l92 170l-25 12q-23 -31 -40 -48.5t-36.5 -26.5t-44 -11t-65.5 -2h-221q47 43 115.5 98t134 116.5t111.5 130.5t46 138q0 117 -72.5 180.5t-201.5 59.5q-49 0 -93 -15.5t-77 -44t-51.5 -68.5t-18.5 -89q0 -35 19.5 -67 t66.5 -32q27 4 45.5 18.5t18.5 41.5q0 18 -7.5 31.5t-14.5 24.5t-14 20.5t-7 21.5q0 61 42 85t95 24q37 0 62.5 -17.5t43 -44t25.5 -58.5t8 -63q0 -51 -18.5 -101t-49 -98t-70.5 -92t-83 -85z" />
<glyph unicode="&#xb3;" horiz-adv-x="614" d="M12 690q0 -43 23.5 -74.5t60.5 -51t82 -29t86 -9.5q78 0 136.5 21.5t99.5 56.5t61.5 82t20.5 98q0 59 -17.5 103.5t-46.5 74t-67.5 45t-79.5 15.5q-20 0 -39 -3t-33 -7l-4 4l-2 -2l321 319l-14 17q-23 0 -54.5 -1t-66.5 -2t-67 -1h-56q-55 0 -109 1t-110 3l-71 -197h45 q10 16 18 33.5t20.5 32t30 23.5t41.5 9h225l-299 -305l46 -26q31 23 55 34t67 11q33 0 57.5 -15.5t41 -40t24.5 -54.5t8 -58q0 -41 -7 -80t-24.5 -69t-49 -47t-80.5 -17q-18 0 -41 2t-43.5 8t-34.5 17.5t-14 29.5q0 10 3 22.5t3 22.5q0 31 -13.5 53.5t-56.5 22.5 q-39 0 -57.5 -21.5t-18.5 -50.5z" />
<glyph unicode="&#xb4;" horiz-adv-x="530" d="M135 887h90l287 196q25 16 42 42t17 49q0 66 -84 65q-29 0 -54 -23.5t-60 -62.5z" />
<glyph unicode="&#xb5;" horiz-adv-x="1099" d="M6 733q84 -10 119 -32.5t35 -84.5v-895q0 -63 -4 -100t-19.5 -58.5t-46.5 -31.5t-82 -18v-25q78 4 156 7t155 7v475q37 -10 78 -10q92 0 171 39t151 92v-106q76 4 154.5 6t156.5 6v21q-72 4 -111.5 29.5t-39.5 103.5v616l-322 -10v-23q55 -8 88 -21t49.5 -30.5t20.5 -40 t4 -49.5v-432q-31 -35 -95.5 -66.5t-129.5 -31.5q-84 0 -129.5 48t-45.5 132v524l-313 -14v-27z" />
<glyph unicode="&#xb6;" horiz-adv-x="1228" d="M184 926q0 -96 24.5 -177t75 -138.5t130.5 -89.5t190 -32v-923h103v1704h120v-1704h103v1540q0 59 9 95t30.5 54.5t54.5 24.5t80 6v45h-492q-229 0 -328.5 -96t-99.5 -309z" />
<glyph unicode="&#xb7;" horiz-adv-x="512" d="M141 377q0 -49 34 -82t81 -33t81 33t34 82t-34 82t-81 33t-81 -33t-34 -82z" />
<glyph unicode="&#xb8;" horiz-adv-x="530" d="M27 -414q86 -37 180 -37q43 0 88 8.5t80 30t57.5 55t22.5 87.5q0 74 -51.5 107.5t-116.5 33.5q-16 0 -32.5 -2t-33.5 -6l55 137h-69l-88 -207l26 -12q16 10 37 13t39 3q41 0 61.5 -26.5t20.5 -67.5q0 -25 -11 -40t-29.5 -24.5t-40 -12.5t-42.5 -3q-70 0 -125 31z" />
<glyph unicode="&#xb9;" horiz-adv-x="614" d="M111 541q47 2 92 3t92 1q53 0 103.5 -1t103.5 -3v32q-39 6 -64.5 12.5t-40 17.5t-19.5 29.5t-5 49.5v682h-41q-47 -25 -104.5 -36t-110.5 -13v-33q47 -4 73.5 -11t39 -21.5t14.5 -39t2 -65.5v-463q0 -31 -7.5 -50.5t-22.5 -30.5t-40.5 -17t-64.5 -11v-32z" />
<glyph unicode="&#xba;" horiz-adv-x="614" d="M18 1118q0 -111 79 -178.5t208 -67.5q131 0 210 68t79 178q0 111 -79 178.5t-210 67.5q-129 0 -208 -67.5t-79 -178.5zM145 1135q0 29 6.5 61.5t22.5 60t43 45t66 17.5q47 0 80.5 -19.5t57 -50t35 -69.5t11.5 -76q0 -29 -7 -61.5t-23.5 -60.5t-43 -46t-67.5 -18 q-45 0 -80 19t-56.5 51t-33 71t-11.5 76z" />
<glyph unicode="&#xbb;" horiz-adv-x="909" d="M174 115l23 -23l290 234q31 25 31 47q0 25 -37 57l-266 232l-22 -21l192 -258zM455 115l22 -23l291 234q31 25 31 47q0 25 -37 57l-266 232l-23 -21l193 -258z" />
<glyph unicode="&#xbc;" horiz-adv-x="1536" d="M152 541q47 2 92 3t92 1q53 0 103 -1t104 -3v32q-39 6 -64.5 12.5t-40 17.5t-19.5 29.5t-5 49.5v682h-41q-47 -25 -104.5 -36t-110.5 -13v-33q47 -4 73.5 -11t39 -21.5t14.5 -39t2 -65.5v-463q0 -31 -7.5 -50.5t-22.5 -30.5t-41 -17t-64 -11v-32zM322 -33h98l928 1397 h-107zM784 236h445v-236h114v647l-114 -104v-217h-289l498 522h-105l-549 -580v-32z" />
<glyph unicode="&#xbd;" horiz-adv-x="1536" d="M90 541q47 2 92 3t92 1q53 0 103.5 -1t103.5 -3v32q-39 6 -64.5 12.5t-40 17.5t-19.5 29.5t-5 49.5v682h-41q-47 -25 -104 -36t-111 -13v-33q47 -4 74 -11t39 -21.5t14 -39t2 -65.5v-463q0 -31 -7 -50.5t-22.5 -30.5t-41 -17t-64.5 -11v-32zM260 -33h98l928 1397h-106z M926 14l14 -18q68 2 135.5 3t132.5 1q51 0 101.5 -1t101.5 -3l92 170l-24 12q-23 -31 -40.5 -48t-37 -26.5t-44 -11.5t-65.5 -2h-221q47 43 115.5 98.5t134 117t112 130t46.5 137.5q0 117 -73 180.5t-202 59.5q-49 0 -93 -15.5t-77 -44t-51 -68.5t-18 -89q0 -35 19.5 -66.5 t66.5 -31.5q27 4 45 18t18 41q0 18 -7 31.5t-14.5 25t-14.5 20.5t-7 21q0 61 42 85t95 24q37 0 62.5 -17.5t43 -44t26 -58.5t8.5 -62q0 -51 -18.5 -101.5t-49.5 -98.5t-71 -92t-83 -85z" />
<glyph unicode="&#xbe;" horiz-adv-x="1536" d="M86 698q0 -43 23.5 -74.5t60.5 -51t82 -28.5t86 -9q78 0 136 21.5t99 56t61.5 81.5t20.5 99q0 59 -17 103t-46 73.5t-68 45t-80 15.5q-20 0 -38.5 -3t-32.5 -7l-4 4l-2 -2l321 319l-14 17q-23 0 -54.5 -1t-66.5 -2t-68 -1h-55q-55 0 -109.5 1t-109.5 3l-72 -197h45 q10 16 18.5 33.5t21 32t29.5 24t42 9.5h225l-299 -306l45 -26q31 23 55.5 34t67.5 11q33 0 57.5 -15.5t41 -40t24.5 -54t8 -58.5q0 -41 -7 -80t-24.5 -68.5t-49 -47t-81.5 -17.5q-18 0 -40.5 2t-43 8t-35 17.5t-14.5 29.5q0 10 3 22.5t3 22.5q0 31 -13 53.5t-56 22.5 q-39 0 -57.5 -21.5t-18.5 -50.5zM322 -33h98l928 1397h-107zM784 236h445v-236h114v647l-114 -104v-217h-289l498 522h-105l-549 -580v-32z" />
<glyph unicode="&#xbf;" d="M213 -219q0 -66 24.5 -120t67.5 -92t99.5 -59.5t119.5 -21.5q68 0 129.5 18.5t107.5 54.5t72.5 91t26.5 129q0 23 -3 46t-11 44l-146 -39q4 -25 8.5 -50.5t4.5 -47.5q0 -80 -36 -140.5t-126 -60.5q-43 0 -74 18.5t-49 47t-26.5 65.5t-8.5 74q0 68 15.5 122t39 102t50 94 t50 97.5t39 111t15.5 132.5q0 35 -5 71t-9 73h-27q4 -104 -31 -197q-33 -86 -86 -150.5t-104 -125t-89 -128t-38 -159.5zM442 758q0 -49 34 -82t81 -33t81 33t34 82t-34 81.5t-81 32.5t-81 -32.5t-34 -81.5z" />
<glyph unicode="&#xc0;" horiz-adv-x="1441" d="M-4 -8q66 4 124 6t120 2q63 0 124.5 -2t122.5 -6v24q-23 4 -55.5 14.5t-63 28t-52 44t-21.5 63.5q0 14 5 26.5t11 28.5l135 371h428l134 -377q4 -14 11 -30.5t7 -32.5q0 -57 -58.5 -91t-144.5 -45v-24q35 2 65 3t62.5 2t73.5 2t96 1q84 0 164 -2t162 -6v24 q-100 12 -151.5 58.5t-80.5 126.5l-426 1171q-47 -18 -85.5 -34.5t-92.5 -26.5q10 -16 17.5 -37t7.5 -31t-5 -22.5t-12 -26.5l-354 -870q-20 -51 -41.5 -101.5t-50.5 -91.5t-71 -70.5t-105 -44.5v-24zM441 1704q0 -23 17 -48.5t42 -42.5l287 -196h90l-238 266 q-35 39 -60.5 62.5t-53.5 23.5q-84 0 -84 -65zM467 653l201 521l184 -521h-385z" />
<glyph unicode="&#xc1;" horiz-adv-x="1441" d="M-4 -8q66 4 124 6t120 2q63 0 124.5 -2t122.5 -6v24q-23 4 -55.5 14.5t-63 28t-52 44t-21.5 63.5q0 14 5 26.5t11 28.5l135 371h428l134 -377q4 -14 11 -30.5t7 -32.5q0 -57 -58.5 -91t-144.5 -45v-24q35 2 65 3t62.5 2t73.5 2t96 1q84 0 164 -2t162 -6v24 q-100 12 -151.5 58.5t-80.5 126.5l-426 1171q-47 -18 -85.5 -34.5t-92.5 -26.5q10 -16 17.5 -37t7.5 -31t-5 -22.5t-12 -26.5l-354 -870q-20 -51 -41.5 -101.5t-50.5 -91.5t-71 -70.5t-105 -44.5v-24zM467 653l201 521l184 -521h-385zM592 1417h90l287 196q25 16 42 42 t17 49q0 66 -84 65q-29 0 -54 -23.5t-60 -62.5z" />
<glyph unicode="&#xc2;" horiz-adv-x="1441" d="M-4 -8q66 4 124 6t120 2q63 0 124.5 -2t122.5 -6v24q-23 4 -55.5 14.5t-63 28t-52 44t-21.5 63.5q0 14 5 26.5t11 28.5l135 371h428l134 -377q4 -14 11 -30.5t7 -32.5q0 -57 -58.5 -91t-144.5 -45v-24q35 2 65 3t62.5 2t73.5 2t96 1q84 0 164 -2t162 -6v24 q-100 12 -151.5 58.5t-80.5 126.5l-426 1171q-47 -18 -85.5 -34.5t-92.5 -26.5q10 -16 17.5 -37t7.5 -31t-5 -22.5t-12 -26.5l-354 -870q-20 -51 -41.5 -101.5t-50.5 -91.5t-71 -70.5t-105 -44.5v-24zM424 1417h80l219 225l217 -225h84l-231 352h-141zM467 653l201 521 l184 -521h-385z" />
<glyph unicode="&#xc3;" horiz-adv-x="1441" d="M-4 -8q66 4 124 6t120 2q63 0 124.5 -2t122.5 -6v24q-23 4 -55.5 14.5t-63 28t-52 44t-21.5 63.5q0 14 5 26.5t11 28.5l135 371h428l134 -377q4 -14 11 -30.5t7 -32.5q0 -57 -58.5 -91t-144.5 -45v-24q35 2 65 3t62.5 2t73.5 2t96 1q84 0 164 -2t162 -6v24 q-100 12 -151.5 58.5t-80.5 126.5l-426 1171q-47 -18 -85.5 -34.5t-92.5 -26.5q10 -16 17.5 -37t7.5 -31t-5 -22.5t-12 -26.5l-354 -870q-20 -51 -41.5 -101.5t-50.5 -91.5t-71 -70.5t-105 -44.5v-24zM406 1466h59q6 35 33 67.5t68 32.5q29 0 59.5 -15t65 -33.5t70.5 -34 t71 -15.5q51 0 86 20.5t58.5 53t38.5 73.5t26 84h-64q-4 -6 -10 -24.5t-17.5 -36.5t-30 -32.5t-46.5 -14.5q-33 0 -66 15.5t-65 33.5q-35 18 -67 33.5t-64 15.5q-49 0 -85 -18.5t-59.5 -49t-38 -71.5t-22.5 -84zM467 653l201 521l184 -521h-385z" />
<glyph unicode="&#xc4;" horiz-adv-x="1441" d="M-4 -8q66 4 124 6t120 2q63 0 124.5 -2t122.5 -6v24q-23 4 -55.5 14.5t-63 28t-52 44t-21.5 63.5q0 14 5 26.5t11 28.5l135 371h428l134 -377q4 -14 11 -30.5t7 -32.5q0 -57 -58.5 -91t-144.5 -45v-24q35 2 65 3t62.5 2t73.5 2t96 1q84 0 164 -2t162 -6v24 q-100 12 -151.5 58.5t-80.5 126.5l-426 1171q-47 -18 -85.5 -34.5t-92.5 -26.5q10 -16 17.5 -37t7.5 -31t-5 -22.5t-12 -26.5l-354 -870q-20 -51 -41.5 -101.5t-50.5 -91.5t-71 -70.5t-105 -44.5v-24zM424 1554q0 -47 31 -78t78 -31t77.5 31t30.5 78t-30.5 78t-77.5 31 t-78 -31t-31 -78zM467 653l201 521l184 -521h-385zM803 1554q0 -47 31 -78t78 -31t77.5 31t30.5 78t-30.5 78t-77.5 31t-78 -31t-31 -78z" />
<glyph unicode="&#xc5;" horiz-adv-x="1441" d="M-4 -8q66 4 124 6t120 2q63 0 124.5 -2t122.5 -6v24q-23 4 -55.5 14.5t-63 28t-52 44t-21.5 63.5q0 14 5 26.5t11 28.5l135 371h428l134 -377q4 -14 11 -30.5t7 -32.5q0 -57 -58.5 -91t-144.5 -45v-24q35 2 65 3t62.5 2t73.5 2t96 1q84 0 164 -2t162 -6v24 q-100 12 -151.5 58.5t-80.5 126.5l-426 1171q-47 -18 -85.5 -34.5t-92.5 -26.5q10 -16 17.5 -37t7.5 -31t-5 -22.5t-12 -26.5l-354 -870q-20 -51 -41.5 -101.5t-50.5 -91.5t-71 -70.5t-105 -44.5v-24zM467 653l201 521l184 -521h-385zM514 1628q0 -88 60.5 -148.5 t148.5 -60.5t148.5 60.5t60.5 148.5t-60.5 148.5t-148.5 60.5t-148.5 -60.5t-60.5 -148.5zM596 1628q0 53 37 90t90 37t90 -37t37 -90t-37 -90t-90 -37t-90 37t-37 90z" />
<glyph unicode="&#xc6;" horiz-adv-x="1972" d="M-78 -8q53 4 104.5 6t104.5 2q86 0 169 -2t169 -6v24q-31 4 -63.5 10.5t-61.5 21.5t-47 40t-18 62q0 25 12 63.5t35 85.5l192 381h344v-404q0 -59 -4 -106t-24.5 -80t-61.5 -51.5t-113 -22.5v-24q55 4 111.5 6t114.5 2h667q61 0 122 -2t122 -6l178 399l-26 12 q-63 -100 -137 -167.5t-160 -108.5t-186.5 -57.5t-215.5 -16.5q-53 0 -104 5t-98 18v637h147q80 0 136 -16.5t93 -50.5t59.5 -88t37.5 -128h24q-4 76 -6 157t-2 165q0 63 2 126.5t6 133.5h-24q-8 -70 -32 -114t-63 -71.5t-91 -40t-120 -16.5q-41 -4 -84 -4h-83v512h280 q88 0 157.5 -12.5t125 -46t96.5 -90t68 -146.5h28q-8 51 -11 101.5t-3 101.5q0 39 1 78t3 77q-53 -4 -121.5 -7t-138.5 -3h-705q-90 0 -174 2t-188 6v-24q33 -6 71.5 -14.5t73.5 -23.5t58.5 -42t23.5 -70q0 -55 -28.5 -109.5t-55.5 -101.5l-336 -596q-29 -49 -62.5 -107 t-76.5 -108.5t-95 -85t-116 -41.5v-24zM543 725l311 545h8v-545h-319z" />
<glyph unicode="&#xc7;" horiz-adv-x="1441" d="M98 666q0 -156 54.5 -286t146.5 -223.5t215 -145.5t260 -52q121 0 217 28.5t178 84t152 135.5t139 184l-51 41q-106 -166 -245.5 -262t-327.5 -96q-127 0 -224.5 50t-162 134t-97.5 195.5t-33 234.5t26 233.5t82 194.5t145.5 133t213.5 49q98 0 177 -31.5t139.5 -89 t104.5 -135t71 -170.5h29q-6 43 -12.5 101.5t-11.5 119t-9 118t-4 100.5q-55 2 -111.5 11t-116 20.5t-126 20.5t-142.5 9q-137 0 -260 -52t-215 -145.5t-146.5 -223.5t-54.5 -285zM578 -414q86 -37 180 -37q43 0 88 8.5t80 30t57.5 55t22.5 87.5q0 74 -51.5 107.5 t-116.5 33.5q-16 0 -32.5 -2t-33.5 -6l55 137h-69l-88 -207l26 -12q16 10 37 13t39 3q41 0 61.5 -26.5t20.5 -67.5q0 -25 -11 -40t-29.5 -24.5t-40 -12.5t-42.5 -3q-70 0 -125 31z" />
<glyph unicode="&#xc8;" horiz-adv-x="1402" d="M76 1315q74 -6 117 -22.5t63 -51.5t25.5 -91t5.5 -142v-684q0 -86 -5.5 -142.5t-25.5 -91.5t-61 -51t-115 -23v-24q59 4 118.5 6t118.5 2h770q35 0 72 -2t72 -6l186 411l-22 19q-74 -98 -145.5 -168t-152.5 -115t-178.5 -65.5t-220.5 -20.5q-57 0 -124.5 9.5t-102.5 17.5 v633h131q82 0 140.5 -10.5t100.5 -39t67.5 -83t43.5 -140.5h25q0 74 -2 148t-2 147q0 72 2 145.5t2 147.5h-25q-18 -150 -101 -206t-224 -56q-41 0 -79 -2t-79 -2v512q145 12 287 12q78 0 147.5 -12t128 -47t102.5 -97.5t70 -160.5l27 8q-4 55 -8 101t-4 91v82t4 88 q-147 -4 -290.5 -6t-287.5 -2q-94 0 -169 1t-141.5 2t-129 2t-131.5 3v-24zM455 1704q0 -23 17 -48.5t42 -42.5l287 -196h90l-238 266q-35 39 -60.5 62.5t-53.5 23.5q-84 0 -84 -65z" />
<glyph unicode="&#xc9;" horiz-adv-x="1402" d="M76 1315q74 -6 117 -22.5t63 -51.5t25.5 -91t5.5 -142v-684q0 -86 -5.5 -142.5t-25.5 -91.5t-61 -51t-115 -23v-24q59 4 118.5 6t118.5 2h770q35 0 72 -2t72 -6l186 411l-22 19q-74 -98 -145.5 -168t-152.5 -115t-178.5 -65.5t-220.5 -20.5q-57 0 -124.5 9.5t-102.5 17.5 v633h131q82 0 140.5 -10.5t100.5 -39t67.5 -83t43.5 -140.5h25q0 74 -2 148t-2 147q0 72 2 145.5t2 147.5h-25q-18 -150 -101 -206t-224 -56q-41 0 -79 -2t-79 -2v512q145 12 287 12q78 0 147.5 -12t128 -47t102.5 -97.5t70 -160.5l27 8q-4 55 -8 101t-4 91v82t4 88 q-147 -4 -290.5 -6t-287.5 -2q-94 0 -169 1t-141.5 2t-129 2t-131.5 3v-24zM606 1417h90l287 196q25 16 42 42t17 49q0 66 -84 65q-29 0 -54 -23.5t-60 -62.5z" />
<glyph unicode="&#xca;" horiz-adv-x="1402" d="M76 1315q74 -6 117 -22.5t63 -51.5t25.5 -91t5.5 -142v-684q0 -86 -5.5 -142.5t-25.5 -91.5t-61 -51t-115 -23v-24q59 4 118.5 6t118.5 2h770q35 0 72 -2t72 -6l186 411l-22 19q-74 -98 -145.5 -168t-152.5 -115t-178.5 -65.5t-220.5 -20.5q-57 0 -124.5 9.5t-102.5 17.5 v633h131q82 0 140.5 -10.5t100.5 -39t67.5 -83t43.5 -140.5h25q0 74 -2 148t-2 147q0 72 2 145.5t2 147.5h-25q-18 -150 -101 -206t-224 -56q-41 0 -79 -2t-79 -2v512q145 12 287 12q78 0 147.5 -12t128 -47t102.5 -97.5t70 -160.5l27 8q-4 55 -8 101t-4 91v82t4 88 q-147 -4 -290.5 -6t-287.5 -2q-94 0 -169 1t-141.5 2t-129 2t-131.5 3v-24zM438 1417h80l219 225l217 -225h84l-231 352h-141z" />
<glyph unicode="&#xcb;" horiz-adv-x="1402" d="M76 1315q74 -6 117 -22.5t63 -51.5t25.5 -91t5.5 -142v-684q0 -86 -5.5 -142.5t-25.5 -91.5t-61 -51t-115 -23v-24q59 4 118.5 6t118.5 2h770q35 0 72 -2t72 -6l186 411l-22 19q-74 -98 -145.5 -168t-152.5 -115t-178.5 -65.5t-220.5 -20.5q-57 0 -124.5 9.5t-102.5 17.5 v633h131q82 0 140.5 -10.5t100.5 -39t67.5 -83t43.5 -140.5h25q0 74 -2 148t-2 147q0 72 2 145.5t2 147.5h-25q-18 -150 -101 -206t-224 -56q-41 0 -79 -2t-79 -2v512q145 12 287 12q78 0 147.5 -12t128 -47t102.5 -97.5t70 -160.5l27 8q-4 55 -8 101t-4 91v82t4 88 q-147 -4 -290.5 -6t-287.5 -2q-94 0 -169 1t-141.5 2t-129 2t-131.5 3v-24zM438 1554q0 -47 31 -78t78 -31t77.5 31t30.5 78t-30.5 78t-77.5 31t-78 -31t-31 -78zM817 1554q0 -47 31 -78t78 -31t77.5 31t30.5 78t-30.5 78t-77.5 31t-78 -31t-31 -78z" />
<glyph unicode="&#xcc;" horiz-adv-x="796" d="M92 1315q74 -6 117 -22.5t64.5 -51.5t26.5 -91t5 -142v-684q0 -86 -5 -142.5t-26.5 -91.5t-62.5 -51t-115 -23v-24q74 4 147.5 6t149.5 2q78 0 156 -2t156 -6v24q-76 6 -119 22.5t-64.5 51.5t-27 91.5t-5.5 142.5v684q0 86 5.5 142t26 91t61.5 51.5t112 22.5v24 q-66 -4 -133 -6t-135 -2q-84 0 -167 2t-167 6v-24zM117 1704q0 -23 17 -48.5t42 -42.5l287 -196h90l-238 266q-35 39 -60.5 62.5t-53.5 23.5q-84 0 -84 -65z" />
<glyph unicode="&#xcd;" horiz-adv-x="796" d="M92 1315q74 -6 117 -22.5t64.5 -51.5t26.5 -91t5 -142v-684q0 -86 -5 -142.5t-26.5 -91.5t-62.5 -51t-115 -23v-24q74 4 147.5 6t149.5 2q78 0 156 -2t156 -6v24q-76 6 -119 22.5t-64.5 51.5t-27 91.5t-5.5 142.5v684q0 86 5.5 142t26 91t61.5 51.5t112 22.5v24 q-66 -4 -133 -6t-135 -2q-84 0 -167 2t-167 6v-24zM268 1417h90l287 196q25 16 42 42t17 49q0 66 -84 65q-29 0 -54 -23.5t-60 -62.5z" />
<glyph unicode="&#xce;" horiz-adv-x="796" d="M92 1315q74 -6 117 -22.5t64.5 -51.5t26.5 -91t5 -142v-684q0 -86 -5 -142.5t-26.5 -91.5t-62.5 -51t-115 -23v-24q74 4 147.5 6t149.5 2q78 0 156 -2t156 -6v24q-76 6 -119 22.5t-64.5 51.5t-27 91.5t-5.5 142.5v684q0 86 5.5 142t26 91t61.5 51.5t112 22.5v24 q-66 -4 -133 -6t-135 -2q-84 0 -167 2t-167 6v-24zM100 1417h80l219 225l217 -225h84l-231 352h-141z" />
<glyph unicode="&#xcf;" horiz-adv-x="796" d="M92 1315q74 -6 117 -22.5t64.5 -51.5t26.5 -91t5 -142v-684q0 -86 -5 -142.5t-26.5 -91.5t-62.5 -51t-115 -23v-24q74 4 147.5 6t149.5 2q78 0 156 -2t156 -6v24q-76 6 -119 22.5t-64.5 51.5t-27 91.5t-5.5 142.5v684q0 86 5.5 142t26 91t61.5 51.5t112 22.5v24 q-66 -4 -133 -6t-135 -2q-84 0 -167 2t-167 6v-24zM100 1554q0 -47 31 -78t78 -31t77.5 31t30.5 78t-30.5 78t-77.5 31t-78 -31t-31 -78zM479 1554q0 -47 31 -78t78 -31t77.5 31t30.5 78t-30.5 78t-77.5 31t-78 -31t-31 -78z" />
<glyph unicode="&#xd0;" horiz-adv-x="1705" d="M80 -8q70 4 137.5 6t136.5 2q43 0 90.5 -1t106.5 -1t139 -1t189 -1q143 0 275 35t234.5 111.5t164 196.5t61.5 290q0 168 -63.5 303t-173 230t-255 146.5t-311.5 51.5q-66 0 -127 -4t-124.5 -10.5t-129 -10.5t-137.5 -4q-53 0 -106.5 2t-106.5 6v-24q72 -6 111.5 -20.5 t60 -39t26 -58.5t5.5 -79v-360h-201v-66h201v-520q0 -25 -6.5 -49.5t-28 -46t-61.5 -37.5t-107 -23v-24zM467 156v536h418v66h-418v67q0 109 2 215.5t10 212.5q66 29 132.5 43.5t140.5 14.5q139 0 256.5 -49.5t202.5 -135.5t133.5 -201.5t48.5 -248.5q0 -307 -144.5 -469 t-460.5 -162q-86 0 -171 24.5t-150 86.5z" />
<glyph unicode="&#xd1;" horiz-adv-x="1669" d="M33 -8q59 4 116.5 6t116.5 2q102 0 202.5 -2t203.5 -6v24q-94 10 -149.5 30t-83 76t-35 162.5t-7.5 286.5v359q0 53 1 104t3 105q92 -100 208 -228.5t241 -277t250 -315t237 -343.5h76v1086q0 61 11.5 105t37 74t69.5 48.5t107 26.5v24q-66 -4 -133 -6t-133 -2 q-72 0 -144.5 2t-144.5 6v-24q82 -6 132.5 -41t78 -100.5t36.5 -163t9 -228.5v-237q0 -61 -1 -122t-1 -122h-4q-41 57 -111.5 146.5t-154.5 191.5t-174 212t-169 206t-140.5 171t-87.5 111q-45 -4 -88 -6t-89 -2q-86 0 -150.5 2t-135.5 6v-24q82 -20 159.5 -51t143.5 -84 l-25 -940q-2 -70 -19.5 -111t-51 -62.5t-85 -30.5t-122.5 -20v-24zM531 1466h59q6 35 33 67.5t68 32.5q29 0 59.5 -15t65 -33.5t70.5 -34t71 -15.5q51 0 86 20.5t58.5 53t38.5 73.5t26 84h-64q-4 -6 -10 -24.5t-17.5 -36.5t-30 -32.5t-46.5 -14.5q-33 0 -66 15.5t-65 33.5 q-35 18 -67 33.5t-64 15.5q-49 0 -85 -18.5t-59.5 -49t-38 -71.5t-22.5 -84z" />
<glyph unicode="&#xd2;" horiz-adv-x="1705" d="M96 666q0 -166 60.5 -297t163 -222.5t240.5 -139.5t294 -48t294 48t240.5 139.5t163 222.5t60.5 297t-60.5 297t-163 222t-240.5 139t-294 48t-294 -48t-240.5 -139t-163 -222t-60.5 -297zM313 666q0 125 37 239.5t106.5 201.5t170 139t227.5 52t227.5 -52t170 -139 t106.5 -201.5t37 -239.5t-37 -240t-106.5 -202t-170 -139t-227.5 -52t-227.5 52t-170 139t-106.5 202t-37 240zM572 1704q0 -23 17 -48.5t42 -42.5l287 -196h90l-238 266q-35 39 -60.5 62.5t-53.5 23.5q-84 0 -84 -65z" />
<glyph unicode="&#xd3;" horiz-adv-x="1705" d="M96 666q0 -166 60.5 -297t163 -222.5t240.5 -139.5t294 -48t294 48t240.5 139.5t163 222.5t60.5 297t-60.5 297t-163 222t-240.5 139t-294 48t-294 -48t-240.5 -139t-163 -222t-60.5 -297zM313 666q0 125 37 239.5t106.5 201.5t170 139t227.5 52t227.5 -52t170 -139 t106.5 -201.5t37 -239.5t-37 -240t-106.5 -202t-170 -139t-227.5 -52t-227.5 52t-170 139t-106.5 202t-37 240zM723 1417h90l287 196q25 16 42 42t17 49q0 66 -84 65q-29 0 -54 -23.5t-60 -62.5z" />
<glyph unicode="&#xd4;" horiz-adv-x="1705" d="M96 666q0 -166 60.5 -297t163 -222.5t240.5 -139.5t294 -48t294 48t240.5 139.5t163 222.5t60.5 297t-60.5 297t-163 222t-240.5 139t-294 48t-294 -48t-240.5 -139t-163 -222t-60.5 -297zM313 666q0 125 37 239.5t106.5 201.5t170 139t227.5 52t227.5 -52t170 -139 t106.5 -201.5t37 -239.5t-37 -240t-106.5 -202t-170 -139t-227.5 -52t-227.5 52t-170 139t-106.5 202t-37 240zM555 1417h80l219 225l217 -225h84l-231 352h-141z" />
<glyph unicode="&#xd5;" horiz-adv-x="1705" d="M96 666q0 -166 60.5 -297t163 -222.5t240.5 -139.5t294 -48t294 48t240.5 139.5t163 222.5t60.5 297t-60.5 297t-163 222t-240.5 139t-294 48t-294 -48t-240.5 -139t-163 -222t-60.5 -297zM313 666q0 125 37 239.5t106.5 201.5t170 139t227.5 52t227.5 -52t170 -139 t106.5 -201.5t37 -239.5t-37 -240t-106.5 -202t-170 -139t-227.5 -52t-227.5 52t-170 139t-106.5 202t-37 240zM537 1466h59q6 35 33 67.5t68 32.5q29 0 59.5 -15t65 -33.5t70.5 -34t71 -15.5q51 0 86 20.5t58.5 53t38.5 73.5t26 84h-64q-4 -6 -10 -24.5t-17.5 -36.5 t-30 -32.5t-46.5 -14.5q-33 0 -66 15.5t-65 33.5q-35 18 -67 33.5t-64 15.5q-49 0 -85 -18.5t-59.5 -49t-38 -71.5t-22.5 -84z" />
<glyph unicode="&#xd6;" horiz-adv-x="1705" d="M96 666q0 -166 60.5 -297t163 -222.5t240.5 -139.5t294 -48t294 48t240.5 139.5t163 222.5t60.5 297t-60.5 297t-163 222t-240.5 139t-294 48t-294 -48t-240.5 -139t-163 -222t-60.5 -297zM313 666q0 125 37 239.5t106.5 201.5t170 139t227.5 52t227.5 -52t170 -139 t106.5 -201.5t37 -239.5t-37 -240t-106.5 -202t-170 -139t-227.5 -52t-227.5 52t-170 139t-106.5 202t-37 240zM555 1554q0 -47 31 -78t78 -31t77.5 31t30.5 78t-30.5 78t-77.5 31t-78 -31t-31 -78zM934 1554q0 -47 31 -78t78 -31t77.5 31t30.5 78t-30.5 78t-77.5 31 t-78 -31t-31 -78z" />
<glyph unicode="&#xd7;" d="M137 74l72 -74l301 305l305 -305l72 72l-305 305l305 305l-74 72l-303 -305l-301 305l-72 -74l299 -303z" />
<glyph unicode="&#xd8;" horiz-adv-x="1705" d="M96 666q0 -182 71 -319.5t191 -227.5l-168 -207l54 -45l172 211q188 -119 438 -119q156 0 294 48t240.5 139.5t163 222.5t60.5 297q0 184 -73 323t-196 232l152 186l-53 45l-156 -192q-190 113 -432 112q-156 0 -294 -48t-240.5 -139t-163 -222.5t-60.5 -296.5zM313 666 q0 125 37 239.5t106.5 201.5t170 139t227.5 52q109 0 196 -36.5t154 -102.5l-753 -928q-68 88 -103 200t-35 235zM498 178l753 930q70 -86 107 -200.5t37 -241.5q0 -125 -37 -240t-106.5 -202t-170 -139t-227.5 -52q-111 0 -201 39t-155 106z" />
<glyph unicode="&#xd9;" horiz-adv-x="1630" d="M86 1315q43 -8 76 -16.5t55.5 -27t33.5 -50t11 -88.5v-727q0 -111 45 -195t120 -140.5t171 -84t201 -27.5q115 0 216 28.5t177 88t120 148.5t44 212v613q0 86 13 136t38 76.5t60.5 37t78.5 16.5v24q-53 -4 -104 -6t-105 -2q-63 0 -125.5 2t-126.5 6v-24 q61 -8 100.5 -26.5t61 -54.5t28.5 -92.5t7 -137.5v-574q0 -49 -18.5 -113.5t-67.5 -121t-133 -95.5t-215 -39q-82 0 -154.5 19.5t-128 61.5t-87.5 109.5t-32 162.5v667q0 61 10.5 103.5t35 70t67.5 41t109 19.5v24q-61 -4 -122 -6t-122 -2q-86 0 -169 2t-169 6v-24z M570 1704q0 -23 17 -48.5t42 -42.5l287 -196h90l-238 266q-35 39 -60.5 62.5t-53.5 23.5q-84 0 -84 -65z" />
<glyph unicode="&#xda;" horiz-adv-x="1630" d="M86 1315q43 -8 76 -16.5t55.5 -27t33.5 -50t11 -88.5v-727q0 -111 45 -195t120 -140.5t171 -84t201 -27.5q115 0 216 28.5t177 88t120 148.5t44 212v613q0 86 13 136t38 76.5t60.5 37t78.5 16.5v24q-53 -4 -104 -6t-105 -2q-63 0 -125.5 2t-126.5 6v-24 q61 -8 100.5 -26.5t61 -54.5t28.5 -92.5t7 -137.5v-574q0 -49 -18.5 -113.5t-67.5 -121t-133 -95.5t-215 -39q-82 0 -154.5 19.5t-128 61.5t-87.5 109.5t-32 162.5v667q0 61 10.5 103.5t35 70t67.5 41t109 19.5v24q-61 -4 -122 -6t-122 -2q-86 0 -169 2t-169 6v-24z M721 1417h90l287 196q25 16 42 42t17 49q0 66 -84 65q-29 0 -54 -23.5t-60 -62.5z" />
<glyph unicode="&#xdb;" horiz-adv-x="1630" d="M86 1315q43 -8 76 -16.5t55.5 -27t33.5 -50t11 -88.5v-727q0 -111 45 -195t120 -140.5t171 -84t201 -27.5q115 0 216 28.5t177 88t120 148.5t44 212v613q0 86 13 136t38 76.5t60.5 37t78.5 16.5v24q-53 -4 -104 -6t-105 -2q-63 0 -125.5 2t-126.5 6v-24 q61 -8 100.5 -26.5t61 -54.5t28.5 -92.5t7 -137.5v-574q0 -49 -18.5 -113.5t-67.5 -121t-133 -95.5t-215 -39q-82 0 -154.5 19.5t-128 61.5t-87.5 109.5t-32 162.5v667q0 61 10.5 103.5t35 70t67.5 41t109 19.5v24q-61 -4 -122 -6t-122 -2q-86 0 -169 2t-169 6v-24z M553 1417h80l219 225l217 -225h84l-231 352h-141z" />
<glyph unicode="&#xdc;" horiz-adv-x="1630" d="M86 1315q43 -8 76 -16.5t55.5 -27t33.5 -50t11 -88.5v-727q0 -111 45 -195t120 -140.5t171 -84t201 -27.5q115 0 216 28.5t177 88t120 148.5t44 212v613q0 86 13 136t38 76.5t60.5 37t78.5 16.5v24q-53 -4 -104 -6t-105 -2q-63 0 -125.5 2t-126.5 6v-24 q61 -8 100.5 -26.5t61 -54.5t28.5 -92.5t7 -137.5v-574q0 -49 -18.5 -113.5t-67.5 -121t-133 -95.5t-215 -39q-82 0 -154.5 19.5t-128 61.5t-87.5 109.5t-32 162.5v667q0 61 10.5 103.5t35 70t67.5 41t109 19.5v24q-61 -4 -122 -6t-122 -2q-86 0 -169 2t-169 6v-24z M553 1554q0 -47 31 -78t78 -31t77.5 31t30.5 78t-30.5 78t-77.5 31t-78 -31t-31 -78zM932 1554q0 -47 31 -78t78 -31t77.5 31t30.5 78t-30.5 78t-77.5 31t-78 -31t-31 -78z" />
<glyph unicode="&#xdd;" horiz-adv-x="1478" d="M-41 1315q66 -14 115 -42t87 -61.5t68.5 -71.5t59.5 -75l370 -475v-322q0 -74 -11 -121t-38.5 -74.5t-74 -38.5t-113.5 -18v-24q76 4 151.5 6t151.5 2q92 0 182 -2t183 -6v24q-70 6 -118 17.5t-76 39t-40 75t-12 120.5v301l280 410q31 43 67 95t82 101.5t103.5 87 t130.5 52.5v24q-66 -4 -130 -6t-130 -2q-72 0 -144.5 2t-144.5 6v-24q61 -4 110.5 -40t49.5 -95q0 -35 -12 -75t-41 -83l-242 -379l-291 393q-41 53 -62 91t-21 61q0 33 16 54.5t41.5 36.5t55.5 23.5t54 12.5v24q-80 -4 -160.5 -6t-160.5 -2q-86 0 -168 2t-168 6v-24z M610 1417h90l287 196q25 16 42 42t17 49q0 66 -84 65q-29 0 -54 -23.5t-60 -62.5z" />
<glyph unicode="&#xde;" horiz-adv-x="1290" d="M90 1315q74 -6 117 -22.5t64.5 -51.5t26.5 -91t5 -142v-684q0 -86 -5 -142.5t-26.5 -91.5t-62.5 -51t-115 -23v-24q74 4 147.5 6t149.5 2q78 0 156 -2t155 -6v24q-76 6 -118.5 22.5t-64 51.5t-27 91.5t-5.5 142.5v65q82 -23 138.5 -28t105.5 -5q80 0 164 18.5t152.5 60.5 t113.5 109.5t45 166.5q0 94 -44 168.5t-113.5 127t-151.5 80t-160 27.5q-66 0 -131 -5t-119 -9q0 59 9.5 97t33 62.5t63.5 37t99 18.5v24q-66 -4 -133 -6t-135 -2q-84 0 -167 2t-167 6v-24zM487 463v567q47 16 93.5 21.5t81.5 5.5q74 0 136 -24.5t107 -69.5t70.5 -111 t25.5 -145q0 -68 -25.5 -121.5t-68.5 -89t-100 -55t-123 -19.5q-49 0 -99 8t-98 33z" />
<glyph unicode="&#xdf;" horiz-adv-x="1138" d="M4 -8q57 4 113.5 6t115.5 2q61 0 124 -2t122 -6v24q-55 4 -87 16.5t-49 42t-21.5 84t-4.5 140.5v727q0 55 9.5 119.5t34 120t66.5 93.5t108 38q49 0 84.5 -18.5t58 -49.5t34 -70.5t11.5 -82.5q0 -72 -22.5 -129.5t-51 -108.5t-52.5 -100.5t-24 -108.5q0 -47 26 -90 t64.5 -83t83 -80t83 -83t64.5 -92t26 -108q0 -66 -36 -111t-102 -45q-37 0 -73.5 19.5t-68.5 49t-54.5 65.5t-32.5 71h-33l17 -213q41 -27 95 -40.5t103 -13.5q63 0 120.5 20.5t100.5 58.5t69 91.5t26 116.5q0 66 -27 121t-68 105.5t-87 94.5t-87 88t-67.5 88t-26.5 91 q0 53 28.5 94t63.5 88t64.5 97.5t29.5 103.5q0 59 -25.5 102t-66.5 71t-94 40t-106 12q-96 0 -175 -45t-134.5 -115.5t-85 -155.5t-29.5 -165v-234h-70l-12 -61h82v-457q0 -59 -4 -98t-20.5 -61.5t-46.5 -34t-83 -15.5v-24z" />
<glyph unicode="&#xe0;" horiz-adv-x="948" d="M29 170q0 -45 18.5 -83t49 -64.5t70.5 -41t83 -14.5q78 0 160 37t147 82q14 -14 32.5 -34.5t40 -39t44 -32t43.5 -13.5q31 0 63.5 17.5t62 43t57.5 53.5l48 48l-20 23q-29 -23 -60.5 -46.5t-72.5 -23.5q-43 0 -63.5 29.5t-20.5 68.5v379q0 63 -26 107.5t-66.5 71 t-94 37.5t-106.5 11q-55 0 -104.5 -5t-89.5 -24.5t-68.5 -57t-44.5 -101.5l168 -31q0 68 30.5 121t83.5 53q72 0 119 -41t47 -116v-156q-96 -2 -191.5 -10t-170 -36t-121.5 -78t-47 -134zM146 1174q0 -23 17 -48.5t42 -42.5l287 -196h90l-238 266q-35 39 -60.5 62.5 t-53.5 23.5q-84 0 -84 -65zM201 199q0 45 19.5 76.5t50 52t69.5 30t78 9.5q70 0 137 -19v-207q-25 -18 -79 -44.5t-120 -26.5q-59 0 -107 29.5t-48 99.5z" />
<glyph unicode="&#xe1;" horiz-adv-x="948" d="M29 170q0 -45 18.5 -83t49 -64.5t70.5 -41t83 -14.5q78 0 160 37t147 82q14 -14 32.5 -34.5t40 -39t44 -32t43.5 -13.5q31 0 63.5 17.5t62 43t57.5 53.5l48 48l-20 23q-29 -23 -60.5 -46.5t-72.5 -23.5q-43 0 -63.5 29.5t-20.5 68.5v379q0 63 -26 107.5t-66.5 71 t-94 37.5t-106.5 11q-55 0 -104.5 -5t-89.5 -24.5t-68.5 -57t-44.5 -101.5l168 -31q0 68 30.5 121t83.5 53q72 0 119 -41t47 -116v-156q-96 -2 -191.5 -10t-170 -36t-121.5 -78t-47 -134zM201 199q0 45 19.5 76.5t50 52t69.5 30t78 9.5q70 0 137 -19v-207q-25 -18 -79 -44.5 t-120 -26.5q-59 0 -107 29.5t-48 99.5zM297 887h90l287 196q25 16 42 42t17 49q0 66 -84 65q-29 0 -54 -23.5t-60 -62.5z" />
<glyph unicode="&#xe2;" horiz-adv-x="948" d="M29 170q0 -45 18.5 -83t49 -64.5t70.5 -41t83 -14.5q78 0 160 37t147 82q14 -14 32.5 -34.5t40 -39t44 -32t43.5 -13.5q31 0 63.5 17.5t62 43t57.5 53.5l48 48l-20 23q-29 -23 -60.5 -46.5t-72.5 -23.5q-43 0 -63.5 29.5t-20.5 68.5v379q0 63 -26 107.5t-66.5 71 t-94 37.5t-106.5 11q-55 0 -104.5 -5t-89.5 -24.5t-68.5 -57t-44.5 -101.5l168 -31q0 68 30.5 121t83.5 53q72 0 119 -41t47 -116v-156q-96 -2 -191.5 -10t-170 -36t-121.5 -78t-47 -134zM129 887h80l219 225l217 -225h84l-231 352h-141zM201 199q0 45 19.5 76.5t50 52 t69.5 30t78 9.5q70 0 137 -19v-207q-25 -18 -79 -44.5t-120 -26.5q-59 0 -107 29.5t-48 99.5z" />
<glyph unicode="&#xe3;" horiz-adv-x="948" d="M29 170q0 -45 18.5 -83t49 -64.5t70.5 -41t83 -14.5q78 0 160 37t147 82q14 -14 32.5 -34.5t40 -39t44 -32t43.5 -13.5q31 0 63.5 17.5t62 43t57.5 53.5l48 48l-20 23q-29 -23 -60.5 -46.5t-72.5 -23.5q-43 0 -63.5 29.5t-20.5 68.5v379q0 63 -26 107.5t-66.5 71 t-94 37.5t-106.5 11q-55 0 -104.5 -5t-89.5 -24.5t-68.5 -57t-44.5 -101.5l168 -31q0 68 30.5 121t83.5 53q72 0 119 -41t47 -116v-156q-96 -2 -191.5 -10t-170 -36t-121.5 -78t-47 -134zM111 936h59q6 35 33 67.5t68 32.5q29 0 59.5 -15t65 -33.5t70.5 -34t71 -15.5 q51 0 86 20.5t58.5 53t38.5 73.5t26 84h-64q-4 -6 -10 -24.5t-17.5 -36.5t-30 -32.5t-46.5 -14.5q-33 0 -66 15.5t-65 33.5q-35 18 -67 33.5t-64 15.5q-49 0 -85 -18.5t-59.5 -49t-38 -71.5t-22.5 -84zM201 199q0 45 19.5 76.5t50 52t69.5 30t78 9.5q70 0 137 -19v-207 q-25 -18 -79 -44.5t-120 -26.5q-59 0 -107 29.5t-48 99.5z" />
<glyph unicode="&#xe4;" horiz-adv-x="948" d="M29 170q0 -45 18.5 -83t49 -64.5t70.5 -41t83 -14.5q78 0 160 37t147 82q14 -14 32.5 -34.5t40 -39t44 -32t43.5 -13.5q31 0 63.5 17.5t62 43t57.5 53.5l48 48l-20 23q-29 -23 -60.5 -46.5t-72.5 -23.5q-43 0 -63.5 29.5t-20.5 68.5v379q0 63 -26 107.5t-66.5 71 t-94 37.5t-106.5 11q-55 0 -104.5 -5t-89.5 -24.5t-68.5 -57t-44.5 -101.5l168 -31q0 68 30.5 121t83.5 53q72 0 119 -41t47 -116v-156q-96 -2 -191.5 -10t-170 -36t-121.5 -78t-47 -134zM129 1024q0 -47 31 -78t78 -31t77.5 31t30.5 78t-30.5 78t-77.5 31t-78 -31t-31 -78z M201 199q0 45 19.5 76.5t50 52t69.5 30t78 9.5q70 0 137 -19v-207q-25 -18 -79 -44.5t-120 -26.5q-59 0 -107 29.5t-48 99.5zM508 1024q0 -47 31 -78t78 -31t77.5 31t30.5 78t-30.5 78t-77.5 31t-78 -31t-31 -78z" />
<glyph unicode="&#xe5;" horiz-adv-x="948" d="M29 170q0 -45 18.5 -83t49 -64.5t70.5 -41t83 -14.5q78 0 160 37t147 82q14 -14 32.5 -34.5t40 -39t44 -32t43.5 -13.5q31 0 63.5 17.5t62 43t57.5 53.5l48 48l-20 23q-29 -23 -60.5 -46.5t-72.5 -23.5q-43 0 -63.5 29.5t-20.5 68.5v379q0 63 -26 107.5t-66.5 71 t-94 37.5t-106.5 11q-55 0 -104.5 -5t-89.5 -24.5t-68.5 -57t-44.5 -101.5l168 -31q0 68 30.5 121t83.5 53q72 0 119 -41t47 -116v-156q-96 -2 -191.5 -10t-170 -36t-121.5 -78t-47 -134zM201 199q0 45 19.5 76.5t50 52t69.5 30t78 9.5q70 0 137 -19v-207q-25 -18 -79 -44.5 t-120 -26.5q-59 0 -107 29.5t-48 99.5zM219 1098q0 -88 60.5 -148.5t148.5 -60.5t148.5 60.5t60.5 148.5t-60.5 148.5t-148.5 60.5t-148.5 -60.5t-60.5 -148.5zM301 1098q0 53 37 90t90 37t90 -37t37 -90t-37 -90t-90 -37t-90 37t-37 90z" />
<glyph unicode="&#xe6;" horiz-adv-x="1402" d="M25 178q0 -98 64.5 -154.5t158.5 -56.5q98 0 187 47t167 103q47 -78 127 -114t168 -36q111 0 214 52.5t175 130.5l-35 30q-47 -51 -119.5 -80.5t-156.5 -29.5q-68 0 -119 31.5t-85 84t-49 118t-9 130.5h573q-8 74 -36.5 138.5t-76 112.5t-112 74.5t-141.5 26.5 q-72 0 -126.5 -28.5t-105.5 -77.5q-43 31 -80 51.5t-75.5 32.5t-80.5 17t-96 5q-96 0 -162.5 -48t-91.5 -142l168 -29q0 27 6.5 54.5t21.5 51t37.5 38t53.5 14.5q80 0 123 -39t45 -119v-143q-104 -2 -200.5 -12.5t-170 -36t-117.5 -72.5t-44 -125zM197 201q0 43 17 73.5 t46 50t65.5 28.5t75.5 9q41 0 79 -5t79 -17q0 -88 25 -172q-53 -39 -113.5 -68.5t-128.5 -29.5q-59 0 -102 32.5t-43 98.5zM717 496q0 41 13 81.5t39 73.5t61.5 53.5t78.5 20.5q47 0 82 -20.5t59.5 -53.5t36 -73.5t9.5 -81.5h-379z" />
<glyph unicode="&#xe7;" horiz-adv-x="909" d="M51 377q0 -84 33 -159t87 -130t127 -88t153 -33q111 0 199.5 38t180.5 114l-28 33q-61 -43 -129 -71t-144 -28q-72 0 -130 28t-99 76t-63.5 109.5t-22.5 128.5q0 59 13.5 119.5t41 109t72.5 79t109 30.5q66 0 112.5 -26.5t81.5 -67.5t61.5 -93t47.5 -104h24l-26 312 q-72 14 -143.5 23t-157.5 9q-80 0 -153 -32.5t-127 -88t-87 -130t-33 -158.5zM242 -414q86 -37 180 -37q43 0 88 8.5t80 30t57.5 55t22.5 87.5q0 74 -51.5 107.5t-116.5 33.5q-16 0 -32.5 -2t-33.5 -6l55 137h-69l-88 -207l26 -12q16 10 37 13t39 3q41 0 61.5 -26.5 t20.5 -67.5q0 -25 -11 -40t-29.5 -24.5t-40 -12.5t-42.5 -3q-70 0 -125 31z" />
<glyph unicode="&#xe8;" horiz-adv-x="909" d="M49 377q0 -78 25.5 -151.5t75 -131t119 -92.5t157.5 -35q123 0 211 47t172 138l-35 32q-59 -59 -129 -86.5t-156 -27.5q-41 0 -89 16t-90 57t-69.5 111t-27.5 176h594q-23 178 -121 267t-260 89q-88 0 -157.5 -34.5t-119 -92t-75 -131t-25.5 -151.5zM174 1174 q0 -23 17 -48.5t42 -42.5l287 -196h90l-238 266q-35 39 -60.5 62.5t-53.5 23.5q-84 0 -84 -65zM217 492q0 41 13.5 81.5t39 74.5t61.5 55.5t79 21.5q57 0 94 -15.5t59.5 -45t32.5 -73.5t16 -99h-395z" />
<glyph unicode="&#xe9;" horiz-adv-x="909" d="M49 377q0 -78 25.5 -151.5t75 -131t119 -92.5t157.5 -35q123 0 211 47t172 138l-35 32q-59 -59 -129 -86.5t-156 -27.5q-41 0 -89 16t-90 57t-69.5 111t-27.5 176h594q-23 178 -121 267t-260 89q-88 0 -157.5 -34.5t-119 -92t-75 -131t-25.5 -151.5zM217 492 q0 41 13.5 81.5t39 74.5t61.5 55.5t79 21.5q57 0 94 -15.5t59.5 -45t32.5 -73.5t16 -99h-395zM325 887h90l287 196q25 16 42 42t17 49q0 66 -84 65q-29 0 -54 -23.5t-60 -62.5z" />
<glyph unicode="&#xea;" horiz-adv-x="909" d="M49 377q0 -78 25.5 -151.5t75 -131t119 -92.5t157.5 -35q123 0 211 47t172 138l-35 32q-59 -59 -129 -86.5t-156 -27.5q-41 0 -89 16t-90 57t-69.5 111t-27.5 176h594q-23 178 -121 267t-260 89q-88 0 -157.5 -34.5t-119 -92t-75 -131t-25.5 -151.5zM157 887h80l219 225 l217 -225h84l-231 352h-141zM217 492q0 41 13.5 81.5t39 74.5t61.5 55.5t79 21.5q57 0 94 -15.5t59.5 -45t32.5 -73.5t16 -99h-395z" />
<glyph unicode="&#xeb;" horiz-adv-x="909" d="M49 377q0 -78 25.5 -151.5t75 -131t119 -92.5t157.5 -35q123 0 211 47t172 138l-35 32q-59 -59 -129 -86.5t-156 -27.5q-41 0 -89 16t-90 57t-69.5 111t-27.5 176h594q-23 178 -121 267t-260 89q-88 0 -157.5 -34.5t-119 -92t-75 -131t-25.5 -151.5zM157 1024 q0 -47 31 -78t78 -31t77.5 31t30.5 78t-30.5 78t-77.5 31t-78 -31t-31 -78zM217 492q0 41 13.5 81.5t39 74.5t61.5 55.5t79 21.5q57 0 94 -15.5t59.5 -45t32.5 -73.5t16 -99h-395zM536 1024q0 -47 31 -78t78 -31t77.5 31t30.5 78t-30.5 78t-77.5 31t-78 -31t-31 -78z" />
<glyph unicode="&#xec;" horiz-adv-x="530" d="M-47 1174q0 -23 17 -48.5t42 -42.5l287 -196h90l-238 266q-35 39 -60.5 62.5t-53.5 23.5q-84 0 -84 -65zM14 -8q47 4 92.5 6t92.5 2q72 0 144.5 -2t143.5 -6v24q-45 2 -75.5 7.5t-50 21.5t-27.5 47t-8 80v602l-312 -20v-29q53 -6 84 -22.5t46.5 -42t18.5 -63.5t3 -87 v-338q0 -49 -8 -80t-26.5 -47t-47.5 -21.5t-70 -7.5v-24z" />
<glyph unicode="&#xed;" horiz-adv-x="530" d="M14 -8q47 4 92.5 6t92.5 2q72 0 144.5 -2t143.5 -6v24q-45 2 -75.5 7.5t-50 21.5t-27.5 47t-8 80v602l-312 -20v-29q53 -6 84 -22.5t46.5 -42t18.5 -63.5t3 -87v-338q0 -49 -8 -80t-26.5 -47t-47.5 -21.5t-70 -7.5v-24zM104 887h90l287 196q25 16 42 42t17 49 q0 66 -84 65q-29 0 -54 -23.5t-60 -62.5z" />
<glyph unicode="&#xee;" horiz-adv-x="530" d="M-64 887h80l219 225l217 -225h84l-231 352h-141zM14 -8q47 4 92.5 6t92.5 2q72 0 144.5 -2t143.5 -6v24q-45 2 -75.5 7.5t-50 21.5t-27.5 47t-8 80v602l-312 -20v-29q53 -6 84 -22.5t46.5 -42t18.5 -63.5t3 -87v-338q0 -49 -8 -80t-26.5 -47t-47.5 -21.5t-70 -7.5v-24z " />
<glyph unicode="&#xef;" horiz-adv-x="530" d="M-64 1024q0 -47 31 -78t78 -31t77.5 31t30.5 78t-30.5 78t-77.5 31t-78 -31t-31 -78zM14 -8q47 4 92.5 6t92.5 2q72 0 144.5 -2t143.5 -6v24q-45 2 -75.5 7.5t-50 21.5t-27.5 47t-8 80v602l-312 -20v-29q53 -6 84 -22.5t46.5 -42t18.5 -63.5t3 -87v-338q0 -49 -8 -80 t-26.5 -47t-47.5 -21.5t-70 -7.5v-24zM315 1024q0 -47 31 -78t78 -31t77.5 31t30.5 78t-30.5 78t-77.5 31t-78 -31t-31 -78z" />
<glyph unicode="&#xf0;" d="M49 377q0 -92 32 -168t90 -129t139 -83t179 -30t179.5 30t139.5 87t90 139t32 187q0 109 -29 210t-78 194t-113.5 178t-136.5 159l236 117l-33 59l-252 -125q-78 78 -153.5 141.5t-141.5 114.5l-36 -33q66 -57 126 -119.5t121 -146.5l-223 -112l33 -58l229 115 q61 -86 106.5 -175t61.5 -167q-61 16 -95 20t-63 4q-98 0 -179 -29.5t-139 -82.5t-90 -129t-32 -168zM229 401q0 59 13.5 116.5t41 104t70 75t99.5 28.5q76 0 131 -34t92 -88t55.5 -119.5t18.5 -131.5q0 -57 -13.5 -115.5t-41 -104.5t-69.5 -74.5t-100 -28.5 q-76 0 -132 33.5t-93 88t-54.5 121t-17.5 129.5z" />
<glyph unicode="&#xf1;" horiz-adv-x="1099" d="M25 -8q47 4 91 6t91 2q70 0 138.5 -2t137.5 -6v24q-78 12 -116.5 34t-38.5 89v434q0 18 20.5 39t51 38.5t67.5 27.5t72 10q96 0 141 -57.5t45 -161.5v-330q0 -68 -36 -89t-101 -34v-24q41 4 85 6t91 2q70 0 137.5 -2t126.5 -6v24q-70 12 -106.5 34t-36.5 89v361 q0 82 -24.5 137t-65.5 88t-93.5 47t-109.5 14q-66 0 -137.5 -38.5t-126.5 -81.5v108l-299 -45v-24q55 0 97 -14.5t42 -76.5v-475q0 -68 -37 -89t-106 -34v-24zM221 936h59q6 35 33 67.5t68 32.5q29 0 59.5 -15t65 -33.5t70.5 -34t71 -15.5q51 0 86 20.5t58.5 53t38.5 73.5 t26 84h-64q-4 -6 -10 -24.5t-17.5 -36.5t-30 -32.5t-46.5 -14.5q-33 0 -66 15.5t-65 33.5q-35 18 -67 33.5t-64 15.5q-49 0 -85 -18.5t-59.5 -49t-38 -71.5t-22.5 -84z" />
<glyph unicode="&#xf2;" d="M49 377q0 -92 32 -168t90 -129t139 -83t179 -30t179.5 30t139.5 83t90 129t32 168t-32 168t-90 129t-139.5 82.5t-179.5 29.5t-179 -29.5t-139 -82.5t-90 -129t-32 -168zM220 1174q0 -23 17 -48.5t42 -42.5l287 -196h90l-238 266q-35 39 -60.5 62.5t-53.5 23.5 q-84 0 -84 -65zM229 401q0 59 13.5 116.5t41 104t70 75t99.5 28.5q76 0 131 -34t92 -88t55.5 -119.5t18.5 -131.5q0 -57 -13.5 -115.5t-41 -104.5t-69.5 -74.5t-100 -28.5q-76 0 -132 33.5t-93 88t-54.5 121t-17.5 129.5z" />
<glyph unicode="&#xf3;" d="M49 377q0 -92 32 -168t90 -129t139 -83t179 -30t179.5 30t139.5 83t90 129t32 168t-32 168t-90 129t-139.5 82.5t-179.5 29.5t-179 -29.5t-139 -82.5t-90 -129t-32 -168zM229 401q0 59 13.5 116.5t41 104t70 75t99.5 28.5q76 0 131 -34t92 -88t55.5 -119.5t18.5 -131.5 q0 -57 -13.5 -115.5t-41 -104.5t-69.5 -74.5t-100 -28.5q-76 0 -132 33.5t-93 88t-54.5 121t-17.5 129.5zM371 887h90l287 196q25 16 42 42t17 49q0 66 -84 65q-29 0 -54 -23.5t-60 -62.5z" />
<glyph unicode="&#xf4;" d="M49 377q0 -92 32 -168t90 -129t139 -83t179 -30t179.5 30t139.5 83t90 129t32 168t-32 168t-90 129t-139.5 82.5t-179.5 29.5t-179 -29.5t-139 -82.5t-90 -129t-32 -168zM203 887h80l219 225l217 -225h84l-231 352h-141zM229 401q0 59 13.5 116.5t41 104t70 75t99.5 28.5 q76 0 131 -34t92 -88t55.5 -119.5t18.5 -131.5q0 -57 -13.5 -115.5t-41 -104.5t-69.5 -74.5t-100 -28.5q-76 0 -132 33.5t-93 88t-54.5 121t-17.5 129.5z" />
<glyph unicode="&#xf5;" d="M49 377q0 -92 32 -168t90 -129t139 -83t179 -30t179.5 30t139.5 83t90 129t32 168t-32 168t-90 129t-139.5 82.5t-179.5 29.5t-179 -29.5t-139 -82.5t-90 -129t-32 -168zM185 936h59q6 35 33 67.5t68 32.5q29 0 59.5 -15t65 -33.5t70.5 -34t71 -15.5q51 0 86 20.5 t58.5 53t38.5 73.5t26 84h-64q-4 -6 -10 -24.5t-17.5 -36.5t-30 -32.5t-46.5 -14.5q-33 0 -66 15.5t-65 33.5q-35 18 -67 33.5t-64 15.5q-49 0 -85 -18.5t-59.5 -49t-38 -71.5t-22.5 -84zM229 401q0 59 13.5 116.5t41 104t70 75t99.5 28.5q76 0 131 -34t92 -88t55.5 -119.5 t18.5 -131.5q0 -57 -13.5 -115.5t-41 -104.5t-69.5 -74.5t-100 -28.5q-76 0 -132 33.5t-93 88t-54.5 121t-17.5 129.5z" />
<glyph unicode="&#xf6;" d="M49 377q0 -92 32 -168t90 -129t139 -83t179 -30t179.5 30t139.5 83t90 129t32 168t-32 168t-90 129t-139.5 82.5t-179.5 29.5t-179 -29.5t-139 -82.5t-90 -129t-32 -168zM203 1024q0 -47 31 -78t78 -31t77.5 31t30.5 78t-30.5 78t-77.5 31t-78 -31t-31 -78zM229 401 q0 59 13.5 116.5t41 104t70 75t99.5 28.5q76 0 131 -34t92 -88t55.5 -119.5t18.5 -131.5q0 -57 -13.5 -115.5t-41 -104.5t-69.5 -74.5t-100 -28.5q-76 0 -132 33.5t-93 88t-54.5 121t-17.5 129.5zM582 1024q0 -47 31 -78t78 -31t77.5 31t30.5 78t-30.5 78t-77.5 31t-78 -31 t-31 -78z" />
<glyph unicode="&#xf7;" d="M137 326h750v102h-750v-102zM414 66q0 -39 29.5 -69t68.5 -30q37 0 66.5 30t29.5 69t-29.5 67.5t-66.5 28.5q-39 0 -68.5 -28.5t-29.5 -67.5zM414 690q0 -39 29.5 -68.5t68.5 -29.5q37 0 66.5 29.5t29.5 68.5t-29.5 67.5t-66.5 28.5q-39 0 -68.5 -28.5t-29.5 -67.5z" />
<glyph unicode="&#xf8;" d="M49 377q0 -115 48 -202t134 -140l-120 -193l51 -30l123 196q88 -41 204 -41q98 0 179.5 30t139.5 83t90 129t32 168q0 119 -51.5 208t-143.5 142l117 186l-53 31l-119 -190q-88 33 -191 32q-98 0 -179 -29.5t-139 -82.5t-90 -129t-32 -168zM229 401q0 59 13.5 116.5 t41 104t69.5 75t100 28.5q53 0 94 -17.5t76 -45.5l-320 -512q-37 55 -55.5 120.5t-18.5 130.5zM344 102l322 514q41 -53 62.5 -122.5t21.5 -141.5q0 -57 -13.5 -115.5t-41 -104.5t-69.5 -74.5t-100 -28.5q-57 0 -102 19.5t-80 53.5z" />
<glyph unicode="&#xf9;" horiz-adv-x="1099" d="M6 733q84 -10 119 -32.5t35 -84.5v-423q0 -115 69.5 -170.5t167.5 -55.5q92 0 171 39t151 92v-106q76 4 154.5 6t156.5 6v21q-72 4 -111.5 29.5t-39.5 103.5v628l-322 -22v-23q55 -8 88 -21t49.5 -30.5t20.5 -40t4 -49.5v-432q-31 -35 -95.5 -66.5t-129.5 -31.5 q-84 0 -129.5 48t-45.5 132v536l-313 -26v-27zM244 1174q0 -23 17 -48.5t42 -42.5l287 -196h90l-238 266q-35 39 -60.5 62.5t-53.5 23.5q-84 0 -84 -65z" />
<glyph unicode="&#xfa;" horiz-adv-x="1099" d="M6 733q84 -10 119 -32.5t35 -84.5v-423q0 -115 69.5 -170.5t167.5 -55.5q92 0 171 39t151 92v-106q76 4 154.5 6t156.5 6v21q-72 4 -111.5 29.5t-39.5 103.5v628l-322 -22v-23q55 -8 88 -21t49.5 -30.5t20.5 -40t4 -49.5v-432q-31 -35 -95.5 -66.5t-129.5 -31.5 q-84 0 -129.5 48t-45.5 132v536l-313 -26v-27zM395 887h90l287 196q25 16 42 42t17 49q0 66 -84 65q-29 0 -54 -23.5t-60 -62.5z" />
<glyph unicode="&#xfb;" horiz-adv-x="1099" d="M6 733q84 -10 119 -32.5t35 -84.5v-423q0 -115 69.5 -170.5t167.5 -55.5q92 0 171 39t151 92v-106q76 4 154.5 6t156.5 6v21q-72 4 -111.5 29.5t-39.5 103.5v628l-322 -22v-23q55 -8 88 -21t49.5 -30.5t20.5 -40t4 -49.5v-432q-31 -35 -95.5 -66.5t-129.5 -31.5 q-84 0 -129.5 48t-45.5 132v536l-313 -26v-27zM227 887h80l219 225l217 -225h84l-231 352h-141z" />
<glyph unicode="&#xfc;" horiz-adv-x="1099" d="M6 733q84 -10 119 -32.5t35 -84.5v-423q0 -115 69.5 -170.5t167.5 -55.5q92 0 171 39t151 92v-106q76 4 154.5 6t156.5 6v21q-72 4 -111.5 29.5t-39.5 103.5v628l-322 -22v-23q55 -8 88 -21t49.5 -30.5t20.5 -40t4 -49.5v-432q-31 -35 -95.5 -66.5t-129.5 -31.5 q-84 0 -129.5 48t-45.5 132v536l-313 -26v-27zM227 1024q0 -47 31 -78t78 -31t77.5 31t30.5 78t-30.5 78t-77.5 31t-78 -31t-31 -78zM606 1024q0 -47 31 -78t78 -31t77.5 31t30.5 78t-30.5 78t-77.5 31t-78 -31t-31 -78z" />
<glyph unicode="&#xfd;" d="M-162 -338q0 -45 17.5 -78t45 -54.5t63.5 -31.5t73 -10q66 0 125 18.5t129.5 94t162 229.5t220.5 424q18 37 53 113.5t81 156.5t101.5 142.5t110.5 70.5v25q-47 -6 -92 -7t-92 -1q-49 0 -96.5 1t-94.5 7v-25q23 -6 44.5 -11t37.5 -14.5t27.5 -23.5t11.5 -39 q0 -14 -15.5 -57t-38 -100.5t-51 -124t-55 -126t-49 -106.5t-33.5 -67q-23 70 -60.5 151.5t-73.5 160.5t-62.5 147.5t-26.5 109.5q0 27 11.5 44t29.5 28.5t41 18.5t45 9v25q-61 -6 -124.5 -7t-125.5 -1q-63 0 -115.5 1t-113.5 7v-25q49 -12 76.5 -22t47 -28.5t35 -46.5 t35.5 -75q23 -45 52.5 -109.5t61.5 -134t62.5 -138t54 -124t39 -92.5t15.5 -43q0 -16 -28.5 -74.5t-74.5 -123t-105.5 -114.5t-121.5 -50q-29 0 -58.5 3t-29.5 15q0 10 16.5 34t16.5 58q0 49 -28.5 73t-75.5 24q-41 0 -71 -33t-30 -74zM383 887h90l287 196q25 16 42 42 t17 49q0 66 -84 65q-29 0 -54 -23.5t-60 -62.5z" />
<glyph unicode="&#xfe;" horiz-adv-x="1099" d="M-16 -475v-25q70 4 138 6t138 2q76 0 151.5 -2t151.5 -6v25q-88 2 -138 10t-75.5 26.5t-32 49.5t-6.5 80v342q55 -35 116.5 -50.5t125.5 -15.5q90 0 170 29t140.5 81t96 127t35.5 169q0 90 -26.5 165.5t-77.5 131t-124 86t-163 30.5t-154.5 -22.5t-138.5 -75.5v770 l-301 -37v-24q92 0 117 -32t25 -112v-1577q0 -47 -10.5 -74.5t-32 -43t-52 -22.5t-73.5 -11zM311 182v406q23 55 93.5 90t160.5 35q63 0 110.5 -31t78 -80t46 -110.5t15.5 -122.5q0 -147 -61.5 -243.5t-188.5 -96.5q-90 0 -160.5 46t-93.5 107z" />
<glyph unicode="&#xff;" d="M-162 -338q0 -45 17.5 -78t45 -54.5t63.5 -31.5t73 -10q66 0 125 18.5t129.5 94t162 229.5t220.5 424q18 37 53 113.5t81 156.5t101.5 142.5t110.5 70.5v25q-47 -6 -92 -7t-92 -1q-49 0 -96.5 1t-94.5 7v-25q23 -6 44.5 -11t37.5 -14.5t27.5 -23.5t11.5 -39 q0 -14 -15.5 -57t-38 -100.5t-51 -124t-55 -126t-49 -106.5t-33.5 -67q-23 70 -60.5 151.5t-73.5 160.5t-62.5 147.5t-26.5 109.5q0 27 11.5 44t29.5 28.5t41 18.5t45 9v25q-61 -6 -124.5 -7t-125.5 -1q-63 0 -115.5 1t-113.5 7v-25q49 -12 76.5 -22t47 -28.5t35 -46.5 t35.5 -75q23 -45 52.5 -109.5t61.5 -134t62.5 -138t54 -124t39 -92.5t15.5 -43q0 -16 -28.5 -74.5t-74.5 -123t-105.5 -114.5t-121.5 -50q-29 0 -58.5 3t-29.5 15q0 10 16.5 34t16.5 58q0 49 -28.5 73t-75.5 24q-41 0 -71 -33t-30 -74zM215 1024q0 -47 31 -78t78 -31 t77.5 31t30.5 78t-30.5 78t-77.5 31t-78 -31t-31 -78zM594 1024q0 -47 31 -78t78 -31t77.5 31t30.5 78t-30.5 78t-77.5 31t-78 -31t-31 -78z" />
<glyph unicode="&#x152;" horiz-adv-x="2048" d="M88 604q0 -158 56.5 -273.5t152.5 -190t222 -111.5t265 -37q88 0 168 4t158 4h514q61 0 123.5 -2t124.5 -6q35 96 83 205.5t107 222.5l-24 14q-113 -174 -262.5 -273.5t-362.5 -99.5q-39 0 -78 2.5t-86 10.5v639q47 0 98.5 -2t86.5 -6q49 -4 83.5 -19.5t59.5 -46.5 t42 -79t34 -120h26q-4 78 -4 154v154v139q0 70 4 139h-24q-23 -127 -80 -183.5t-148 -66.5q-41 -4 -85 -7t-93 -3v520h125q102 0 184 -8t146.5 -39t114 -91.5t82.5 -164.5l30 6q0 47 -3 91t-3 79v180q-135 -4 -264 -6t-260 -2h-223q-86 0 -155 8.5t-153 8.5 q-154 0 -295 -51.5t-249.5 -147.5t-173 -234.5t-64.5 -310.5zM305 645q0 123 34 239.5t103.5 208t177 146.5t257.5 55q47 0 82.5 -10t59 -38.5t35 -81t11.5 -136.5v-704q2 -80 -2 -134.5t-25.5 -88t-67.5 -49t-128 -15.5q-133 0 -233.5 45t-168 125t-101.5 191.5t-34 246.5z " />
<glyph unicode="&#x153;" horiz-adv-x="1554" d="M43 377q0 -92 33 -168t88 -129t130 -83t161 -30q209 0 340 150q45 -68 116.5 -109t153.5 -41q129 0 218 50.5t175 142.5l-33 33q-49 -47 -114.5 -85t-143.5 -38q-51 0 -103 18t-92 60t-65.5 112t-25.5 174h573q-16 160 -115.5 256t-261.5 96q-86 0 -152.5 -37.5 t-125.5 -97.5q-82 78 -159 106.5t-185 28.5q-86 0 -161 -29.5t-130 -82.5t-88 -129t-33 -168zM223 438q0 51 13.5 102.5t41 92.5t71 66.5t100.5 25.5q66 0 117.5 -33t87.5 -83t55.5 -112.5t19.5 -121.5q0 -68 -12 -130.5t-41 -110.5t-75 -76.5t-112 -28.5q-74 0 -124 41 t-81.5 102t-46 133t-14.5 133zM881 496q0 41 12 81.5t36.5 73.5t60.5 53.5t83 20.5t83 -20.5t60.5 -53.5t37 -73.5t12.5 -81.5h-385z" />
<glyph unicode="&#x178;" horiz-adv-x="1478" d="M-41 1315q66 -14 115 -42t87 -61.5t68.5 -71.5t59.5 -75l370 -475v-322q0 -74 -11 -121t-38.5 -74.5t-74 -38.5t-113.5 -18v-24q76 4 151.5 6t151.5 2q92 0 182 -2t183 -6v24q-70 6 -118 17.5t-76 39t-40 75t-12 120.5v301l280 410q31 43 67 95t82 101.5t103.5 87 t130.5 52.5v24q-66 -4 -130 -6t-130 -2q-72 0 -144.5 2t-144.5 6v-24q61 -4 110.5 -40t49.5 -95q0 -35 -12 -75t-41 -83l-242 -379l-291 393q-41 53 -62 91t-21 61q0 33 16 54.5t41.5 36.5t55.5 23.5t54 12.5v24q-80 -4 -160.5 -6t-160.5 -2q-86 0 -168 2t-168 6v-24z M442 1554q0 -47 31 -78t78 -31t77.5 31t30.5 78t-30.5 78t-77.5 31t-78 -31t-31 -78zM821 1554q0 -47 31 -78t78 -31t77.5 31t30.5 78t-30.5 78t-77.5 31t-78 -31t-31 -78z" />
<glyph unicode="&#x2c6;" horiz-adv-x="530" d="M-33 887h80l219 225l217 -225h84l-231 352h-141z" />
<glyph unicode="&#x2dc;" horiz-adv-x="530" d="M-51 936h59q6 35 33 67.5t68 32.5q29 0 59.5 -15t65 -33.5t70.5 -34t71 -15.5q51 0 86 20.5t58.5 53t38.5 73.5t26 84h-64q-4 -6 -10 -24.5t-17.5 -36.5t-30 -32.5t-46.5 -14.5q-33 0 -66 15.5t-65 33.5q-35 18 -67 33.5t-64 15.5q-49 0 -85 -18.5t-59.5 -49t-38 -71.5 t-22.5 -84z" />
<glyph unicode="&#x2000;" horiz-adv-x="918" />
<glyph unicode="&#x2001;" horiz-adv-x="1837" />
<glyph unicode="&#x2002;" horiz-adv-x="918" />
<glyph unicode="&#x2003;" horiz-adv-x="1837" />
<glyph unicode="&#x2004;" horiz-adv-x="612" />
<glyph unicode="&#x2005;" horiz-adv-x="459" />
<glyph unicode="&#x2006;" horiz-adv-x="306" />
<glyph unicode="&#x2007;" horiz-adv-x="306" />
<glyph unicode="&#x2008;" horiz-adv-x="229" />
<glyph unicode="&#x2009;" horiz-adv-x="367" />
<glyph unicode="&#x200a;" horiz-adv-x="102" />
<glyph unicode="&#x2010;" horiz-adv-x="681" d="M61 301q45 12 90.5 16.5t92.5 4.5q35 0 83 -8.5t97 -8.5q55 0 106 12l23 152q-33 -10 -64.5 -15t-66.5 -5q-57 0 -112.5 8t-112.5 8q-59 0 -121 -16z" />
<glyph unicode="&#x2011;" horiz-adv-x="681" d="M61 301q45 12 90.5 16.5t92.5 4.5q35 0 83 -8.5t97 -8.5q55 0 106 12l23 152q-33 -10 -64.5 -15t-66.5 -5q-57 0 -112.5 8t-112.5 8q-59 0 -121 -16z" />
<glyph unicode="&#x2012;" horiz-adv-x="681" d="M61 301q45 12 90.5 16.5t92.5 4.5q35 0 83 -8.5t97 -8.5q55 0 106 12l23 152q-33 -10 -64.5 -15t-66.5 -5q-57 0 -112.5 8t-112.5 8q-59 0 -121 -16z" />
<glyph unicode="&#x2013;" d="M-23 326h1024l33 102h-1024z" />
<glyph unicode="&#x2014;" horiz-adv-x="2048" d="M262 225h27q29 53 60.5 77t94.5 24h1145q31 0 62.5 -2t62.5 -7q12 53 31.5 105.5t40.5 105.5h-27q-29 -53 -60.5 -76.5t-94.5 -23.5h-1145q-31 0 -62.5 2t-62.5 6q-12 -53 -31.5 -105t-40.5 -106z" />
<glyph unicode="&#x2018;" horiz-adv-x="454" d="M78 1112q0 -51 21.5 -90t78.5 -39q35 0 57.5 28.5t22.5 63.5q0 47 -11 88t-11 76q0 61 31.5 104t76.5 80l-18 23q-45 -25 -89 -59.5t-79 -77.5t-57.5 -92.5t-22.5 -104.5z" />
<glyph unicode="&#x2019;" horiz-adv-x="454" d="M111 985l18 -22q45 25 89 59.5t80 77.5t57.5 92t21.5 104q0 51 -21.5 90t-79.5 39q-35 0 -57 -28.5t-22 -63.5q0 -47 11 -88t11 -76q0 -61 -31.5 -104t-76.5 -80z" />
<glyph unicode="&#x201a;" horiz-adv-x="454" d="M111 -195l18 -22q45 25 89 59.5t80 77.5t57.5 92t21.5 105q0 51 -21.5 90t-79.5 39q-35 0 -57 -29t-22 -63q0 -47 11 -88t11 -76q0 -61 -31.5 -104.5t-76.5 -80.5z" />
<glyph unicode="&#x201c;" horiz-adv-x="796" d="M78 1112q0 -51 21.5 -90t78.5 -39q35 0 57.5 28.5t22.5 63.5q0 47 -11 88t-11 76q0 61 31.5 104t76.5 80l-18 23q-45 -25 -89 -59.5t-79 -77.5t-57.5 -92.5t-22.5 -104.5zM420 1112q0 -51 21.5 -90t78.5 -39q35 0 57.5 28.5t22.5 63.5q0 47 -11 88t-11 76q0 61 31.5 104 t76.5 80l-18 23q-45 -25 -89 -59.5t-79 -77.5t-57.5 -92.5t-22.5 -104.5z" />
<glyph unicode="&#x201d;" horiz-adv-x="796" d="M111 985l18 -22q45 25 89 59.5t80 77.5t57.5 92t21.5 104q0 51 -21.5 90t-79.5 39q-35 0 -57 -28.5t-22 -63.5q0 -47 11 -88t11 -76q0 -61 -31.5 -104t-76.5 -80zM453 985l18 -22q45 25 89 59.5t80 77.5t57.5 92t21.5 104q0 51 -21.5 90t-79.5 39q-35 0 -57 -28.5 t-22 -63.5q0 -47 11 -88t11 -76q0 -61 -31.5 -104t-76.5 -80z" />
<glyph unicode="&#x201e;" horiz-adv-x="796" d="M111 -195l18 -22q45 25 89 59.5t80 77.5t57.5 92t21.5 105q0 51 -21.5 90t-79.5 39q-35 0 -57 -29t-22 -63q0 -47 11 -88t11 -76q0 -61 -31.5 -104.5t-76.5 -80.5zM453 -195l18 -22q45 25 89 59.5t80 77.5t57.5 92t21.5 105q0 51 -21.5 90t-79.5 39q-35 0 -57 -29 t-22 -63q0 -47 11 -88t11 -76q0 -61 -31.5 -104.5t-76.5 -80.5z" />
<glyph unicode="&#x2022;" d="M180 666q0 -70 25.5 -131.5t71 -106.5t106.5 -70.5t131 -25.5t130.5 25.5t105.5 70.5t70.5 106.5t25.5 131.5t-25.5 130t-70.5 105t-105.5 70.5t-130.5 25.5t-131 -25.5t-106.5 -70.5t-71 -105.5t-25.5 -129.5z" />
<glyph unicode="&#x2026;" horiz-adv-x="2048" d="M227 102q0 -49 34 -81.5t81 -32.5t81 32.5t34 81.5t-34 82t-81 33t-81 -32.5t-34 -82.5zM909 102q0 -49 34 -81.5t81 -32.5t81 32.5t34 81.5t-34 82t-81 33t-81 -32.5t-34 -82.5zM1591 102q0 -49 34 -81.5t81 -32.5t81 32.5t34 81.5t-34 82t-81 33t-81 -32.5t-34 -82.5z " />
<glyph unicode="&#x202f;" horiz-adv-x="367" />
<glyph unicode="&#x2039;" horiz-adv-x="606" d="M106 373q0 -23 31 -47l291 -234l23 23l-211 268l192 258l-22 21l-267 -232q-37 -33 -37 -57z" />
<glyph unicode="&#x203a;" horiz-adv-x="606" d="M156 115l22 -23l291 234q31 25 31 47q0 25 -37 57l-266 232l-23 -21l193 -258z" />
<glyph unicode="&#x205f;" horiz-adv-x="459" />
<glyph unicode="&#x2122;" horiz-adv-x="2027" d="M59 1151h37q14 57 44 98t96 41h106v-631q0 -39 -1 -60t-10 -31.5t-30.5 -14.5t-60.5 -8v-41h335v41q-39 4 -60 8t-30.5 14.5t-10.5 32t-1 59.5v631h107q63 0 94 -41t45 -98h37v180h-697v-180zM848 1290q43 0 83 -27.5t56 -74.5v-512q0 -66 -19.5 -94.5t-86.5 -36.5v-41 h266v41q-66 8 -86.5 36.5t-20.5 94.5v459h4l312 -637h18l318 643h4v-482q0 -39 -1 -60t-10.5 -31.5t-30 -14.5t-61.5 -8v-41h334v41q-39 4 -60.5 8t-29.5 14.5t-9 32t-1 59.5v515q0 53 24.5 82.5t90.5 33.5v41h-201l-336 -645l-322 645h-235v-41z" />
<glyph unicode="&#x25fc;" horiz-adv-x="757" d="M0 0v758h758v-758h-758z" />
<glyph unicode="&#xfb01;" horiz-adv-x="1138" d="M4 -8q66 4 130.5 6t131.5 2q72 0 141.5 -2t141.5 -6v24q-84 2 -131 16.5t-69.5 41t-28 63.5t-5.5 84v461h258v61h-258v287q0 74 14.5 141.5t44 121t74 85t103.5 31.5q51 0 86 -21.5t55.5 -58.5t28.5 -86t8 -104l164 69q-8 123 -89 186.5t-229 63.5q-106 0 -185 -52 t-131 -129t-77.5 -165t-25.5 -158v-211h-93l-12 -61h105v-461q0 -47 -4.5 -84t-19.5 -63.5t-45 -41t-83 -16.5v-24zM616 -8q47 4 92.5 6t92.5 2q72 0 144.5 -2t144.5 -6v24q-45 2 -76 7.5t-50.5 21.5t-27.5 47t-8 80v606l-312 -41v-24q53 -2 84 -18.5t46.5 -43t18.5 -63.5 t3 -78v-338q0 -49 -8 -80t-26.5 -47t-47.5 -21.5t-70 -7.5v-24z" />
<glyph unicode="&#xfb02;" horiz-adv-x="1175" d="M10 -8q66 4 129.5 6t128.5 2q72 0 141.5 -2t141.5 -6v24q-84 2 -131 16.5t-69.5 41t-28 63.5t-5.5 84v461h304v61h-304v195q0 33 1 81t7.5 100t19.5 104.5t35.5 93.5t58.5 66.5t87 25.5q47 0 80 -21.5t55.5 -55.5t35 -74.5t14.5 -79.5l88 43v-996q0 -59 -4 -98 t-20.5 -61.5t-46.5 -34t-83 -15.5v-24q57 4 113.5 6t115.5 2q61 0 124 -2t122 -6v24q-55 4 -87 15.5t-49 34t-21.5 61.5t-4.5 98v1219l-149 -76q-49 33 -108.5 61.5t-131.5 28.5q-109 0 -186.5 -50t-127.5 -130t-73.5 -179.5t-23.5 -197.5v-158h-92l-15 -61h107v-461 q0 -47 -4 -84t-18.5 -63.5t-44.5 -41t-81 -16.5v-24z" />
</font>
</defs>
</svg>
